<?xml version="1.0" encoding="UTF-8" standalone="no"?>
<!-- Created with Inkscape (http://www.inkscape.org/) -->

<svg
   width="1016mm"
   height="571.5mm"
   viewBox="0 0 1016 571.5"
   version="1.1"
   id="svg2937"
   inkscape:version="1.1.2 (0a00cf5339, 2022-02-04, custom)"
   sodipodi:docname="cat-windows.svg"
   inkscape:export-filename="/home/mm/Obrazy/cat-hashtags-black.png"
   inkscape:export-xdpi="96"
   inkscape:export-ydpi="96"
   xmlns:inkscape="http://www.inkscape.org/namespaces/inkscape"
   xmlns:sodipodi="http://sodipodi.sourceforge.net/DTD/sodipodi-0.dtd"
   xmlns="http://www.w3.org/2000/svg"
   xmlns:svg="http://www.w3.org/2000/svg">
  <sodipodi:namedview
     id="namedview2939"
     pagecolor="#ffffff"
     bordercolor="#666666"
     borderopacity="1.0"
     inkscape:pageshadow="2"
     inkscape:pageopacity="0.0"
     inkscape:pagecheckerboard="0"
     inkscape:document-units="mm"
     showgrid="false"
     units="mm"
     showborder="false"
     inkscape:zoom="0.2908635"
     inkscape:cx="1963.1202"
     inkscape:cy="1086.4203"
     inkscape:window-width="1896"
     inkscape:window-height="1020"
     inkscape:window-x="9"
     inkscape:window-y="45"
     inkscape:window-maximized="1"
     inkscape:current-layer="layer1" />
  <defs
     id="defs2934">
    <rect
       x="881.23215"
       y="575.20525"
       width="1433.6753"
       height="664.38148"
       id="rect9435" />
    <clipPath
       clipPathUnits="userSpaceOnUse"
       id="clipPath17032">
      <g
         id="g17040"
         transform="translate(-953.64902,58.894478)"
         style="stroke-width:0.999999">
        <path
           d="m 1225.221,146.93356 c -21.4777,0.0456 -42.3995,6.83103 -59.8158,19.39965 l 23.3015,23.3015 c 10.9938,-6.72509 23.6267,-10.29414 36.5143,-10.31606 38.7721,-8e-5 70.2031,31.43092 70.203,70.203 -0.031,12.883 -3.6065,25.50905 -10.3349,36.49549 l 23.3457,23.34566 c 12.5646,-17.42634 19.3414,-38.35751 19.3743,-59.84115 0,-56.65783 -45.9303,-102.58809 -102.5881,-102.58809 z"
           fill="#abc2ab"
           id="path17034"
           style="stroke-width:0.0718106" />
        <path
           d="m 1285.0368,332.71009 -23.3015,-23.30149 c -10.9938,6.72508 -23.6267,10.29415 -36.5143,10.31605 -38.7721,8e-5 -70.2031,-31.43092 -70.203,-70.203 0.031,-12.88299 3.6065,-25.50905 10.3349,-36.49548 l -23.3457,-23.34566 c -12.5646,17.42633 -19.3414,38.3575 -19.3743,59.84114 0,56.65783 45.9303,102.5881 102.5881,102.5881 21.4778,-0.0456 42.3995,-6.83102 59.8158,-19.39966 z"
           fill="#478061"
           id="path17036"
           style="stroke-width:0.0718106" />
        <circle
           fill="#abc2ab"
           cx="1225.2046"
           cy="249.52165"
           r="32.660702"
           id="circle17038"
           style="stroke-width:0.0718106" />
      </g>
    </clipPath>
    <rect
       x="881.23215"
       y="575.20525"
       width="1433.6753"
       height="664.38148"
       id="rect14923" />
    <rect
       x="881.23215"
       y="575.20525"
       width="1433.6753"
       height="664.38148"
       id="rect14965" />
    <rect
       x="881.23215"
       y="575.20525"
       width="1433.6753"
       height="664.38148"
       id="rect14989" />
    <rect
       x="881.23215"
       y="575.20525"
       width="1433.6753"
       height="664.38148"
       id="rect15013" />
    <rect
       x="881.23215"
       y="575.20525"
       width="1433.6753"
       height="664.38148"
       id="rect15037" />
  </defs>
  <g
     inkscape:label="Layer 1"
     inkscape:groupmode="layer"
     id="layer1">
    <rect
       style="fill:#1e1e2e;stroke:#1e1e2e;stroke-width:0.529167"
       id="rect4741"
       width="1015.4708"
       height="570.97083"
       x="0.2645835"
       y="0.2645835" />
    <g
       id="g1425">
      <path
         style="fill:#f28fad;stroke-width:0.264583"
         d="m 411.19408,216.14262 79.12225,-10.77564 0.0335,76.31985 -79.08447,0.44999 z"
         id="path2" />
      <path
         style="fill:#abe9b3;stroke-width:0.264583"
         d="m 499.86981,203.95719 104.90955,-15.31147 v 92.07024 l -104.90955,0.83294 z"
         id="path4" />
      <path
         style="fill:#96cdfb;stroke-width:0.264583"
         d="m 490.27863,290.48036 0.0586,76.3863 -79.08456,-10.87302 -0.004,-66.0257 z"
         id="path6" />
      <path
         style="fill:#fae3b0;stroke-width:0.264583"
         d="m 604.80592,291.19865 -0.0251,91.65563 -104.90955,-14.80684 -0.14665,-77.0204 z"
         id="path8" />
    </g>
  </g>
</svg>
