<?xml version="1.0" encoding="UTF-8" standalone="no"?>
<!-- Created with Inkscape (http://www.inkscape.org/) -->

<svg
   width="1016mm"
   height="571.5mm"
   viewBox="0 0 1016 571.5"
   version="1.1"
   id="svg2937"
   inkscape:version="1.1.2 (0a00cf5339, 2022-02-04, custom)"
   sodipodi:docname="cat-apple-4.svg"
   inkscape:export-filename="/home/mm/Obrazy/cat-apple-3.png"
   inkscape:export-xdpi="96"
   inkscape:export-ydpi="96"
   xmlns:inkscape="http://www.inkscape.org/namespaces/inkscape"
   xmlns:sodipodi="http://sodipodi.sourceforge.net/DTD/sodipodi-0.dtd"
   xmlns="http://www.w3.org/2000/svg"
   xmlns:svg="http://www.w3.org/2000/svg">
  <sodipodi:namedview
     id="namedview2939"
     pagecolor="#ffffff"
     bordercolor="#666666"
     borderopacity="1.0"
     inkscape:pageshadow="2"
     inkscape:pageopacity="0.0"
     inkscape:pagecheckerboard="0"
     inkscape:document-units="mm"
     showgrid="false"
     units="mm"
     showborder="false"
     inkscape:zoom="0.2908635"
     inkscape:cx="1825.5986"
     inkscape:cy="935.14657"
     inkscape:window-width="1896"
     inkscape:window-height="1020"
     inkscape:window-x="9"
     inkscape:window-y="45"
     inkscape:window-maximized="1"
     inkscape:current-layer="layer1" />
  <defs
     id="defs2934">
    <rect
       x="881.23215"
       y="575.20525"
       width="1433.6753"
       height="664.38148"
       id="rect9435" />
    <clipPath
       clipPathUnits="userSpaceOnUse"
       id="clipPath17032">
      <g
         id="g17040"
         transform="translate(-953.64902,58.894478)"
         style="stroke-width:0.999999">
        <path
           d="m 1225.221,146.93356 c -21.4777,0.0456 -42.3995,6.83103 -59.8158,19.39965 l 23.3015,23.3015 c 10.9938,-6.72509 23.6267,-10.29414 36.5143,-10.31606 38.7721,-8e-5 70.2031,31.43092 70.203,70.203 -0.031,12.883 -3.6065,25.50905 -10.3349,36.49549 l 23.3457,23.34566 c 12.5646,-17.42634 19.3414,-38.35751 19.3743,-59.84115 0,-56.65783 -45.9303,-102.58809 -102.5881,-102.58809 z"
           fill="#abc2ab"
           id="path17034"
           style="stroke-width:0.0718106" />
        <path
           d="m 1285.0368,332.71009 -23.3015,-23.30149 c -10.9938,6.72508 -23.6267,10.29415 -36.5143,10.31605 -38.7721,8e-5 -70.2031,-31.43092 -70.203,-70.203 0.031,-12.88299 3.6065,-25.50905 10.3349,-36.49548 l -23.3457,-23.34566 c -12.5646,17.42633 -19.3414,38.3575 -19.3743,59.84114 0,56.65783 45.9303,102.5881 102.5881,102.5881 21.4778,-0.0456 42.3995,-6.83102 59.8158,-19.39966 z"
           fill="#478061"
           id="path17036"
           style="stroke-width:0.0718106" />
        <circle
           fill="#abc2ab"
           cx="1225.2046"
           cy="249.52165"
           r="32.660702"
           id="circle17038"
           style="stroke-width:0.0718106" />
      </g>
    </clipPath>
    <rect
       x="881.23215"
       y="575.20525"
       width="1433.6753"
       height="664.38148"
       id="rect14923" />
    <rect
       x="881.23215"
       y="575.20525"
       width="1433.6753"
       height="664.38148"
       id="rect14965" />
    <rect
       x="881.23215"
       y="575.20525"
       width="1433.6753"
       height="664.38148"
       id="rect14989" />
    <rect
       x="881.23215"
       y="575.20525"
       width="1433.6753"
       height="664.38148"
       id="rect15013" />
    <rect
       x="881.23215"
       y="575.20525"
       width="1433.6753"
       height="664.38148"
       id="rect15037" />
  </defs>
  <g
     inkscape:label="Layer 1"
     inkscape:groupmode="layer"
     id="layer1">
    <rect
       style="fill:#1e1e2e;stroke:#1e1e2e;stroke-width:0.529167"
       id="rect4741"
       width="1015.4708"
       height="570.97083"
       x="0.2645835"
       y="0.2645835" />
    <g
       id="g1152">
      <path
         d="m 378.17531,299.71518 c -0.75615,1.74686 -1.65118,3.35483 -2.68819,4.83318 -1.41354,2.01537 -2.57091,3.41039 -3.46286,4.18506 -1.38267,1.27157 -2.86411,1.92278 -4.45048,1.95982 -1.13885,0 -2.51226,-0.32407 -4.11098,-0.98145 -1.60397,-0.65431 -3.078,-0.97837 -4.4258,-0.97837 -1.41353,0 -2.92954,0.32406 -4.55109,0.97837 -1.62403,0.65738 -2.93232,0.99997 -3.9326,1.03392 -1.52125,0.0648 -3.03756,-0.60493 -4.55109,-2.01229 -0.96602,-0.84257 -2.17432,-2.28697 -3.62181,-4.3332 -1.55303,-2.18512 -2.82985,-4.71899 -3.83013,-7.60779 -1.07126,-3.12028 -1.60828,-6.14179 -1.60828,-9.06701 0,-3.35083 0.72405,-6.24086 2.17432,-8.6627 1.13978,-1.94531 2.65609,-3.47983 4.55387,-4.60634 1.89778,-1.12651 3.94834,-1.70057 6.1566,-1.7373 1.2083,0 2.79282,0.37376 4.7619,1.1083 1.96352,0.73702 3.22428,1.11077 3.77704,1.11077 0.41326,0 1.81383,-0.43702 4.18815,-1.30829 2.2453,-0.808 4.1403,-1.14256 5.69272,-1.01077 4.20667,0.33949 7.36706,1.99778 9.46885,4.98534 -3.76223,2.27956 -5.62329,5.47236 -5.58625,9.56823 0.034,3.19033 1.19132,5.84519 3.46594,7.95315 1.03083,0.97836 2.18203,1.73451 3.46286,2.27153 -0.27777,0.80553 -0.57097,1.57712 -0.88269,2.31784 z m -9.64785,-37.9649 c 0,2.50057 -0.91355,4.83535 -2.73448,6.99639 -2.19747,2.56906 -4.85541,4.05359 -7.73773,3.81933 -0.0367,-0.29999 -0.058,-0.61572 -0.058,-0.9475 0,-2.40054 1.04504,-4.9696 2.90084,-7.07016 0.92652,-1.06354 2.10488,-1.94787 3.53384,-2.65331 1.42589,-0.69492 2.77461,-1.07922 4.04309,-1.14503 0.0371,0.33428 0.0525,0.66859 0.0525,1.00025 z"
         id="path4"
         inkscape:connector-curvature="0"
         style="fill:#f5c2e7;fill-opacity:1;stroke-width:0.222864" />
      <path
         d="m 438.17531,299.71518 c -0.75615,1.74686 -1.65118,3.35483 -2.68819,4.83318 -1.41354,2.01537 -2.57091,3.41039 -3.46286,4.18506 -1.38267,1.27157 -2.86411,1.92278 -4.45048,1.95982 -1.13885,0 -2.51226,-0.32407 -4.11098,-0.98145 -1.60397,-0.65431 -3.078,-0.97837 -4.4258,-0.97837 -1.41353,0 -2.92954,0.32406 -4.55109,0.97837 -1.62403,0.65738 -2.93232,0.99997 -3.9326,1.03392 -1.52125,0.0648 -3.03756,-0.60493 -4.55109,-2.01229 -0.96602,-0.84257 -2.17432,-2.28697 -3.62181,-4.3332 -1.55303,-2.18512 -2.82985,-4.71899 -3.83013,-7.60779 -1.07126,-3.12028 -1.60828,-6.14179 -1.60828,-9.06701 0,-3.35083 0.72405,-6.24086 2.17432,-8.6627 1.13978,-1.94531 2.65609,-3.47983 4.55387,-4.60634 1.89778,-1.12651 3.94834,-1.70057 6.1566,-1.7373 1.2083,0 2.79282,0.37376 4.7619,1.1083 1.96352,0.73702 3.22428,1.11077 3.77704,1.11077 0.41326,0 1.81383,-0.43702 4.18815,-1.30829 2.2453,-0.808 4.1403,-1.14256 5.69272,-1.01077 4.20667,0.33949 7.36706,1.99778 9.46885,4.98534 -3.76223,2.27956 -5.62329,5.47236 -5.58625,9.56823 0.034,3.19033 1.19132,5.84519 3.46594,7.95315 1.03083,0.97836 2.18203,1.73451 3.46286,2.27153 -0.27777,0.80553 -0.57097,1.57712 -0.88269,2.31784 z m -9.64785,-37.9649 c 0,2.50057 -0.91355,4.83535 -2.73448,6.99639 -2.19747,2.56906 -4.85541,4.05359 -7.73773,3.81933 -0.0367,-0.29999 -0.058,-0.61572 -0.058,-0.9475 0,-2.40054 1.04504,-4.9696 2.90084,-7.07016 0.92652,-1.06354 2.10488,-1.94787 3.53384,-2.65331 1.42589,-0.69492 2.77461,-1.07922 4.04309,-1.14503 0.0371,0.33428 0.0525,0.66859 0.0525,1.00025 z"
         id="path834"
         inkscape:connector-curvature="0"
         style="fill:#f8bd96;fill-opacity:1;stroke-width:0.222864" />
      <path
         d="m 498.17531,299.71518 c -0.75615,1.74686 -1.65118,3.35483 -2.68819,4.83318 -1.41354,2.01537 -2.57091,3.41039 -3.46286,4.18506 -1.38267,1.27157 -2.86411,1.92278 -4.45048,1.95982 -1.13885,0 -2.51226,-0.32407 -4.11098,-0.98145 -1.60397,-0.65431 -3.078,-0.97837 -4.4258,-0.97837 -1.41353,0 -2.92954,0.32406 -4.55109,0.97837 -1.62403,0.65738 -2.93232,0.99997 -3.9326,1.03392 -1.52125,0.0648 -3.03756,-0.60493 -4.55109,-2.01229 -0.96602,-0.84257 -2.17432,-2.28697 -3.62181,-4.3332 -1.55303,-2.18512 -2.82985,-4.71899 -3.83013,-7.60779 -1.07126,-3.12028 -1.60828,-6.14179 -1.60828,-9.06701 0,-3.35083 0.72405,-6.24086 2.17432,-8.6627 1.13978,-1.94531 2.65609,-3.47983 4.55387,-4.60634 1.89778,-1.12651 3.94834,-1.70057 6.1566,-1.7373 1.2083,0 2.79282,0.37376 4.7619,1.1083 1.96352,0.73702 3.22428,1.11077 3.77704,1.11077 0.41326,0 1.81383,-0.43702 4.18815,-1.30829 2.2453,-0.808 4.1403,-1.14256 5.69272,-1.01077 4.20667,0.33949 7.36706,1.99778 9.46885,4.98534 -3.76223,2.27956 -5.62329,5.47236 -5.58625,9.56823 0.034,3.19033 1.19132,5.84519 3.46594,7.95315 1.03083,0.97836 2.18203,1.73451 3.46286,2.27153 -0.27777,0.80553 -0.57097,1.57712 -0.88269,2.31784 z m -9.64785,-37.9649 c 0,2.50057 -0.91355,4.83535 -2.73448,6.99639 -2.19747,2.56906 -4.85541,4.05359 -7.73773,3.81933 -0.0367,-0.29999 -0.058,-0.61572 -0.058,-0.9475 0,-2.40054 1.04504,-4.9696 2.90084,-7.07016 0.92652,-1.06354 2.10488,-1.94787 3.53384,-2.65331 1.42589,-0.69492 2.77461,-1.07922 4.04309,-1.14503 0.0371,0.33428 0.0525,0.66859 0.0525,1.00025 z"
         id="path836"
         inkscape:connector-curvature="0"
         style="fill:#96cdfb;fill-opacity:1;stroke-width:0.222864" />
      <path
         d="m 558.17531,299.71518 c -0.75615,1.74686 -1.65118,3.35483 -2.68819,4.83318 -1.41354,2.01537 -2.57091,3.41039 -3.46286,4.18506 -1.38267,1.27157 -2.86411,1.92278 -4.45048,1.95982 -1.13885,0 -2.51226,-0.32407 -4.11098,-0.98145 -1.60397,-0.65431 -3.078,-0.97837 -4.4258,-0.97837 -1.41353,0 -2.92954,0.32406 -4.55109,0.97837 -1.62403,0.65738 -2.93232,0.99997 -3.9326,1.03392 -1.52125,0.0648 -3.03756,-0.60493 -4.55109,-2.01229 -0.96602,-0.84257 -2.17432,-2.28697 -3.62181,-4.3332 -1.55303,-2.18512 -2.82985,-4.71899 -3.83013,-7.60779 -1.07126,-3.12028 -1.60828,-6.14179 -1.60828,-9.06701 0,-3.35083 0.72405,-6.24086 2.17432,-8.6627 1.13978,-1.94531 2.65609,-3.47983 4.55387,-4.60634 1.89778,-1.12651 3.94834,-1.70057 6.1566,-1.7373 1.2083,0 2.79282,0.37376 4.7619,1.1083 1.96352,0.73702 3.22428,1.11077 3.77704,1.11077 0.41326,0 1.81383,-0.43702 4.18815,-1.30829 2.2453,-0.808 4.1403,-1.14256 5.69272,-1.01077 4.20667,0.33949 7.36706,1.99778 9.46885,4.98534 -3.76223,2.27956 -5.62329,5.47236 -5.58625,9.56823 0.034,3.19033 1.19132,5.84519 3.46594,7.95315 1.03083,0.97836 2.18203,1.73451 3.46286,2.27153 -0.27777,0.80553 -0.57097,1.57712 -0.88269,2.31784 z m -9.64785,-37.9649 c 0,2.50057 -0.91355,4.83535 -2.73448,6.99639 -2.19747,2.56906 -4.85541,4.05359 -7.73773,3.81933 -0.0367,-0.29999 -0.058,-0.61572 -0.058,-0.9475 0,-2.40054 1.04504,-4.9696 2.90084,-7.07016 0.92652,-1.06354 2.10488,-1.94787 3.53384,-2.65331 1.42589,-0.69492 2.77461,-1.07922 4.04309,-1.14503 0.0371,0.33428 0.0525,0.66859 0.0525,1.00025 z"
         id="path838"
         inkscape:connector-curvature="0"
         style="fill:#f28fad;fill-opacity:1;stroke-width:0.222864" />
      <path
         d="m 618.17531,299.71518 c -0.75615,1.74686 -1.65118,3.35483 -2.68819,4.83318 -1.41354,2.01537 -2.57091,3.41039 -3.46286,4.18506 -1.38267,1.27157 -2.86411,1.92278 -4.45048,1.95982 -1.13885,0 -2.51226,-0.32407 -4.11098,-0.98145 -1.60397,-0.65431 -3.078,-0.97837 -4.4258,-0.97837 -1.41353,0 -2.92954,0.32406 -4.55109,0.97837 -1.62403,0.65738 -2.93232,0.99997 -3.9326,1.03392 -1.52125,0.0648 -3.03756,-0.60493 -4.55109,-2.01229 -0.96602,-0.84257 -2.17432,-2.28697 -3.62181,-4.3332 -1.55303,-2.18512 -2.82985,-4.71899 -3.83013,-7.60779 -1.07126,-3.12028 -1.60828,-6.14179 -1.60828,-9.06701 0,-3.35083 0.72405,-6.24086 2.17432,-8.6627 1.13978,-1.94531 2.65609,-3.47983 4.55387,-4.60634 1.89778,-1.12651 3.94834,-1.70057 6.1566,-1.7373 1.2083,0 2.79282,0.37376 4.7619,1.1083 1.96352,0.73702 3.22428,1.11077 3.77704,1.11077 0.41326,0 1.81383,-0.43702 4.18815,-1.30829 2.2453,-0.808 4.1403,-1.14256 5.69272,-1.01077 4.20667,0.33949 7.36706,1.99778 9.46885,4.98534 -3.76223,2.27956 -5.62329,5.47236 -5.58625,9.56823 0.034,3.19033 1.19132,5.84519 3.46594,7.95315 1.03083,0.97836 2.18203,1.73451 3.46286,2.27153 -0.27777,0.80553 -0.57097,1.57712 -0.88269,2.31784 z m -9.64785,-37.9649 c 0,2.50057 -0.91355,4.83535 -2.73448,6.99639 -2.19747,2.56906 -4.85541,4.05359 -7.73773,3.81933 -0.0367,-0.29999 -0.058,-0.61572 -0.058,-0.9475 0,-2.40054 1.04504,-4.9696 2.90084,-7.07016 0.92652,-1.06354 2.10488,-1.94787 3.53384,-2.65331 1.42589,-0.69492 2.77461,-1.07922 4.04309,-1.14503 0.0371,0.33428 0.0525,0.66859 0.0525,1.00025 z"
         id="path840"
         inkscape:connector-curvature="0"
         style="fill:#abe9b3;fill-opacity:1;stroke-width:0.222864" />
      <path
         d="m 678.17531,299.71518 c -0.75615,1.74686 -1.65118,3.35483 -2.68819,4.83318 -1.41354,2.01537 -2.57091,3.41039 -3.46286,4.18506 -1.38267,1.27157 -2.86411,1.92278 -4.45048,1.95982 -1.13885,0 -2.51226,-0.32407 -4.11098,-0.98145 -1.60397,-0.65431 -3.078,-0.97837 -4.4258,-0.97837 -1.41353,0 -2.92954,0.32406 -4.55109,0.97837 -1.62403,0.65738 -2.93232,0.99997 -3.9326,1.03392 -1.52125,0.0648 -3.03756,-0.60493 -4.55109,-2.01229 -0.96602,-0.84257 -2.17432,-2.28697 -3.62181,-4.3332 -1.55303,-2.18512 -2.82985,-4.71899 -3.83013,-7.60779 -1.07126,-3.12028 -1.60828,-6.14179 -1.60828,-9.06701 0,-3.35083 0.72405,-6.24086 2.17432,-8.6627 1.13978,-1.94531 2.65609,-3.47983 4.55387,-4.60634 1.89778,-1.12651 3.94834,-1.70057 6.1566,-1.7373 1.2083,0 2.79282,0.37376 4.7619,1.1083 1.96352,0.73702 3.22428,1.11077 3.77704,1.11077 0.41326,0 1.81383,-0.43702 4.18815,-1.30829 2.2453,-0.808 4.1403,-1.14256 5.69272,-1.01077 4.20667,0.33949 7.36706,1.99778 9.46885,4.98534 -3.76223,2.27956 -5.62329,5.47236 -5.58625,9.56823 0.034,3.19033 1.19132,5.84519 3.46594,7.95315 1.03083,0.97836 2.18203,1.73451 3.46286,2.27153 -0.27777,0.80553 -0.57097,1.57712 -0.88269,2.31784 z m -9.64785,-37.9649 c 0,2.50057 -0.91355,4.83535 -2.73448,6.99639 -2.19747,2.56906 -4.85541,4.05359 -7.73773,3.81933 -0.0367,-0.29999 -0.058,-0.61572 -0.058,-0.9475 0,-2.40054 1.04504,-4.9696 2.90084,-7.07016 0.92652,-1.06354 2.10488,-1.94787 3.53384,-2.65331 1.42589,-0.69492 2.77461,-1.07922 4.04309,-1.14503 0.0371,0.33428 0.0525,0.66859 0.0525,1.00025 z"
         id="path842"
         inkscape:connector-curvature="0"
         style="fill:#ddb6f2;fill-opacity:1;stroke-width:0.222864" />
    </g>
  </g>
</svg>
