<?xml version="1.0" encoding="UTF-8" standalone="no"?>
<!-- Created with Inkscape (http://www.inkscape.org/) -->

<svg
   width="1016mm"
   height="571.5mm"
   viewBox="0 0 1016 571.5"
   version="1.1"
   id="svg2937"
   inkscape:version="1.1.2 (0a00cf5339, 2022-02-04, custom)"
   sodipodi:docname="cat-endeavour-3.svg"
   inkscape:export-filename="/home/mm/Obrazy/cat-endeavour-3.png"
   inkscape:export-xdpi="96"
   inkscape:export-ydpi="96"
   xmlns:inkscape="http://www.inkscape.org/namespaces/inkscape"
   xmlns:sodipodi="http://sodipodi.sourceforge.net/DTD/sodipodi-0.dtd"
   xmlns="http://www.w3.org/2000/svg"
   xmlns:svg="http://www.w3.org/2000/svg">
  <sodipodi:namedview
     id="namedview2939"
     pagecolor="#ffffff"
     bordercolor="#666666"
     borderopacity="1.0"
     inkscape:pageshadow="2"
     inkscape:pageopacity="0.0"
     inkscape:pagecheckerboard="0"
     inkscape:document-units="mm"
     showgrid="false"
     units="mm"
     showborder="false"
     inkscape:zoom="0.20567155"
     inkscape:cx="3140.9303"
     inkscape:cy="1157.1848"
     inkscape:window-width="1896"
     inkscape:window-height="1020"
     inkscape:window-x="9"
     inkscape:window-y="45"
     inkscape:window-maximized="1"
     inkscape:current-layer="layer1" />
  <defs
     id="defs2934">
    <rect
       x="881.23215"
       y="575.20525"
       width="1433.6753"
       height="664.38148"
       id="rect9435" />
    <clipPath
       clipPathUnits="userSpaceOnUse"
       id="clipPath17032">
      <g
         id="g17040"
         transform="translate(-953.64902,58.894478)"
         style="stroke-width:0.999999">
        <path
           d="m 1225.221,146.93356 c -21.4777,0.0456 -42.3995,6.83103 -59.8158,19.39965 l 23.3015,23.3015 c 10.9938,-6.72509 23.6267,-10.29414 36.5143,-10.31606 38.7721,-8e-5 70.2031,31.43092 70.203,70.203 -0.031,12.883 -3.6065,25.50905 -10.3349,36.49549 l 23.3457,23.34566 c 12.5646,-17.42634 19.3414,-38.35751 19.3743,-59.84115 0,-56.65783 -45.9303,-102.58809 -102.5881,-102.58809 z"
           fill="#abc2ab"
           id="path17034"
           style="stroke-width:0.0718106" />
        <path
           d="m 1285.0368,332.71009 -23.3015,-23.30149 c -10.9938,6.72508 -23.6267,10.29415 -36.5143,10.31605 -38.7721,8e-5 -70.2031,-31.43092 -70.203,-70.203 0.031,-12.88299 3.6065,-25.50905 10.3349,-36.49548 l -23.3457,-23.34566 c -12.5646,17.42633 -19.3414,38.3575 -19.3743,59.84114 0,56.65783 45.9303,102.5881 102.5881,102.5881 21.4778,-0.0456 42.3995,-6.83102 59.8158,-19.39966 z"
           fill="#478061"
           id="path17036"
           style="stroke-width:0.0718106" />
        <circle
           fill="#abc2ab"
           cx="1225.2046"
           cy="249.52165"
           r="32.660702"
           id="circle17038"
           style="stroke-width:0.0718106" />
      </g>
    </clipPath>
    <rect
       x="881.23215"
       y="575.20525"
       width="1433.6753"
       height="664.38148"
       id="rect14923" />
    <rect
       x="881.23215"
       y="575.20525"
       width="1433.6753"
       height="664.38148"
       id="rect14965" />
    <rect
       x="881.23215"
       y="575.20525"
       width="1433.6753"
       height="664.38148"
       id="rect14989" />
    <rect
       x="881.23215"
       y="575.20525"
       width="1433.6753"
       height="664.38148"
       id="rect15013" />
    <rect
       x="881.23215"
       y="575.20525"
       width="1433.6753"
       height="664.38148"
       id="rect15037" />
  </defs>
  <g
     inkscape:label="Layer 1"
     inkscape:groupmode="layer"
     id="layer1">
    <rect
       style="fill:#1e1e2e;stroke:#1e1e2e;stroke-width:0.529167"
       id="rect4741"
       width="1015.4708"
       height="570.97083"
       x="0.2645835"
       y="0.2645835" />
    <g
       id="g1143"
       transform="matrix(3.2918629,0,0,3.2918629,208.75184,-186.70964)"
       style="stroke-width:0.303779">
      <path
         d="m 95.008205,123.06967 c 4.386211,6.31917 22.842845,30.76311 10.269685,35.85763 -5.873876,2.75301 -32.632642,-1.61653 -32.248729,-0.90231 -1.919567,3.21347 -3.445623,5.79992 -3.445623,5.79992 0,0 20.635347,0.94738 36.567752,-1.24424 22.74687,-3.1155 -4.68374,-32.82051 -11.133487,-39.48259 z"
         style="fill:#96cdfb;stroke-width:0.172326"
         inkscape:connector-curvature="0"
         id="path7" />
      <path
         d="m 95.008205,123.06967 c -1.458871,0.20476 -28.217637,33.80023 -28.217637,33.80023 0,0 1.929165,0.55844 6.315376,1.20505 1.42048,-1.12667 21.403174,-35.46575 21.979044,-34.97589 -0.01027,-0.0138 -0.02687,-0.0189 -0.0501,-0.0157 z"
         style="fill:#e8a2af;stroke-width:0.172326"
         inkscape:connector-curvature="0"
         id="path9" />
      <path
         d="m 95.008205,123.06967 c -0.921392,-0.15284 -21.979044,34.97589 -21.979044,34.97589 0,0 19.099694,2.0574 26.969919,1.92024 22.171,-0.38209 0.16892,-29.97933 -4.952483,-36.93532 -0.0067,-0.007 -0.01449,-0.0106 -0.0238,-0.0121 z"
         style="fill:#ddb6f2;stroke-width:0.172326"
         inkscape:connector-curvature="0"
         id="path11" />
    </g>
  </g>
</svg>
