<?xml version="1.0" encoding="UTF-8" standalone="no"?>
<!-- Created with Inkscape (http://www.inkscape.org/) -->

<svg
   width="1016mm"
   height="571.5mm"
   viewBox="0 0 1016 571.5"
   version="1.1"
   id="svg2937"
   inkscape:version="1.1.2 (0a00cf5339, 2022-02-04, custom)"
   sodipodi:docname="cat-oses-3.svg"
   inkscape:export-filename="/home/mm/Obrazy/cat-oses-3.png"
   inkscape:export-xdpi="96"
   inkscape:export-ydpi="96"
   xmlns:inkscape="http://www.inkscape.org/namespaces/inkscape"
   xmlns:sodipodi="http://sodipodi.sourceforge.net/DTD/sodipodi-0.dtd"
   xmlns="http://www.w3.org/2000/svg"
   xmlns:svg="http://www.w3.org/2000/svg">
  <sodipodi:namedview
     id="namedview2939"
     pagecolor="#ffffff"
     bordercolor="#666666"
     borderopacity="1.0"
     inkscape:pageshadow="2"
     inkscape:pageopacity="0.0"
     inkscape:pagecheckerboard="0"
     inkscape:document-units="mm"
     showgrid="false"
     units="mm"
     showborder="false"
     inkscape:zoom="0.2908635"
     inkscape:cx="2363.6517"
     inkscape:cy="1021.0975"
     inkscape:window-width="945"
     inkscape:window-height="1020"
     inkscape:window-x="9"
     inkscape:window-y="45"
     inkscape:window-maximized="1"
     inkscape:current-layer="layer1" />
  <defs
     id="defs2934">
    <rect
       x="881.23215"
       y="575.20525"
       width="1433.6753"
       height="664.38148"
       id="rect9435" />
    <clipPath
       clipPathUnits="userSpaceOnUse"
       id="clipPath17032">
      <g
         id="g17040"
         transform="translate(-953.64902,58.894478)"
         style="stroke-width:0.999999">
        <path
           d="m 1225.221,146.93356 c -21.4777,0.0456 -42.3995,6.83103 -59.8158,19.39965 l 23.3015,23.3015 c 10.9938,-6.72509 23.6267,-10.29414 36.5143,-10.31606 38.7721,-8e-5 70.2031,31.43092 70.203,70.203 -0.031,12.883 -3.6065,25.50905 -10.3349,36.49549 l 23.3457,23.34566 c 12.5646,-17.42634 19.3414,-38.35751 19.3743,-59.84115 0,-56.65783 -45.9303,-102.58809 -102.5881,-102.58809 z"
           fill="#abc2ab"
           id="path17034"
           style="stroke-width:0.0718106" />
        <path
           d="m 1285.0368,332.71009 -23.3015,-23.30149 c -10.9938,6.72508 -23.6267,10.29415 -36.5143,10.31605 -38.7721,8e-5 -70.2031,-31.43092 -70.203,-70.203 0.031,-12.88299 3.6065,-25.50905 10.3349,-36.49548 l -23.3457,-23.34566 c -12.5646,17.42633 -19.3414,38.3575 -19.3743,59.84114 0,56.65783 45.9303,102.5881 102.5881,102.5881 21.4778,-0.0456 42.3995,-6.83102 59.8158,-19.39966 z"
           fill="#478061"
           id="path17036"
           style="stroke-width:0.0718106" />
        <circle
           fill="#abc2ab"
           cx="1225.2046"
           cy="249.52165"
           r="32.660702"
           id="circle17038"
           style="stroke-width:0.0718106" />
      </g>
    </clipPath>
    <rect
       x="881.23215"
       y="575.20525"
       width="1433.6753"
       height="664.38148"
       id="rect14923" />
    <rect
       x="881.23215"
       y="575.20525"
       width="1433.6753"
       height="664.38148"
       id="rect14965" />
    <rect
       x="881.23215"
       y="575.20525"
       width="1433.6753"
       height="664.38148"
       id="rect14989" />
    <rect
       x="881.23215"
       y="575.20525"
       width="1433.6753"
       height="664.38148"
       id="rect15013" />
    <rect
       x="881.23215"
       y="575.20525"
       width="1433.6753"
       height="664.38148"
       id="rect15037" />
    <linearGradient
       id="_Linear1"
       x1="0"
       y1="0"
       x2="1"
       y2="0"
       gradientUnits="userSpaceOnUse"
       gradientTransform="matrix(31.382163,164.36095,-164.36095,31.382163,811.34583,213.03124)">
      <stop
         offset="0%"
         style="stop-color:#D9E0EE;stop-opacity:1"
         id="stop9" />
      <stop
         offset="34%"
         style="stop-color:#D9E0EE;stop-opacity:1"
         id="stop11" />
      <stop
         offset="51%"
         style="stop-color:#C9CBFF;stop-opacity:1"
         id="stop13" />
      <stop
         offset="75%"
         style="stop-color:#C9CBFF;stop-opacity:1"
         id="stop15" />
      <stop
         offset="87%"
         style="stop-color:#C9CBFF;stop-opacity:1"
         id="stop17" />
      <stop
         offset="100%"
         style="stop-color:#C9CBFF;stop-opacity:1"
         id="stop19" />
    </linearGradient>
  </defs>
  <g
     inkscape:label="Layer 1"
     inkscape:groupmode="layer"
     id="layer1">
    <rect
       style="fill:#1e1e2e;stroke:#1e1e2e;stroke-width:0.529167"
       id="rect4741"
       width="1015.4708"
       height="570.97083"
       x="0.2645835"
       y="0.2645835" />
    <g
       id="g4105"
       transform="translate(-10.295153,9.3279204)">
      <path
         d="m 642.95905,268.46879 c -0.29003,0.22502 -5.41054,3.11031 -5.41054,9.52595 0,7.42074 6.51565,10.046 6.71067,10.11101 -0.03,0.16001 -1.03511,3.59536 -3.43535,7.09571 -2.14021,3.08031 -4.37544,6.15561 -7.77577,6.15561 -3.40034,0 -4.27543,-1.97519 -8.20082,-1.97519 -3.82539,0 -5.18552,2.0402 -8.29583,2.0402 -3.11032,0 -5.28053,-2.85029 -7.77578,-6.35063 -2.89029,-4.11042 -5.22552,-10.49605 -5.22552,-16.55666 0,-9.72097 6.32063,-14.87649 12.54125,-14.87649 3.30533,0 6.06061,2.17022 8.13581,2.17022 1.9752,0 5.05551,-2.30023 8.81589,-2.30023 1.42514,0 6.54565,0.13001 9.91599,4.9605 z m -11.70117,-9.07591 c 1.55515,-1.84519 2.65526,-4.40544 2.65526,-6.9657 0,-0.35504 -0.03,-0.71507 -0.095,-1.0051 -2.53025,0.095 -5.54055,1.68517 -7.35573,3.79038 -1.42515,1.62016 -2.75528,4.18042 -2.75528,6.77568 0,0.39004 0.065,0.78007 0.095,0.90509 0.16002,0.03 0.42004,0.065 0.68007,0.065 2.27023,0 5.12551,-1.52015 6.77568,-3.56535 z"
         id="path2-5"
         style="fill:#d9e0ee;stroke-width:0.264584" />
      <g
         id="g1425"
         transform="matrix(0.25745518,0,0,0.25745518,349.55471,202.85426)"
         style="stroke-width:3.88418">
        <path
           style="fill:#f28fad;stroke-width:1.02769"
           d="m 411.19408,216.14262 79.12225,-10.77564 0.0335,76.31985 -79.08447,0.44999 z"
           id="path2" />
        <path
           style="fill:#abe9b3;stroke-width:1.02769"
           d="m 499.86981,203.95719 104.90955,-15.31147 v 92.07024 l -104.90955,0.83294 z"
           id="path4" />
        <path
           style="fill:#96cdfb;stroke-width:1.02769"
           d="m 490.27863,290.48036 0.0586,76.3863 -79.08456,-10.87302 -0.004,-66.0257 z"
           id="path6" />
        <path
           style="fill:#fae3b0;stroke-width:1.02769"
           d="m 604.80592,291.19865 -0.0251,91.65563 -104.90955,-14.80684 -0.14665,-77.0204 z"
           id="path8" />
      </g>
      <g
         id="g1291"
         style="stroke-width:0.259249;enable-background:new"
         transform="matrix(1.0886131,0,0,1.0886131,370.92907,-78.693429)">
        <path
           inkscape:connector-curvature="0"
           d="m 150.90845,303.24411 h 34.669 c 3.12,0 5.63,2.24 5.63,5.03 v 35.86 c 0,2.79 -2.51,5.04 -5.63,5.04 h -34.669 c -3.119,0 -5.63,-2.25 -5.63,-5.04 v -35.86 c 0,-2.79 2.511,-5.03 5.63,-5.03 z"
           style="fill:#96cdfb;stroke:none;stroke-width:0.700465;stroke-linecap:round;stroke-linejoin:round;stroke-miterlimit:13.654"
           id="rect2732"
           inkscape:label="125" />
        <path
           d="m 181.28363,336.83158 c -4e-4,-3.9e-4 -8.3e-4,-8.3e-4 -8.3e-4,-9e-4 -0.24086,-0.26902 -0.3556,-0.76781 -0.47899,-1.29918 -0.12307,-0.53098 -0.26074,-1.10359 -0.70128,-1.47473 -8.3e-4,-8.3e-4 -0.002,-0.002 -0.003,-0.003 -0.0873,-0.0754 -0.17701,-0.13899 -0.2671,-0.19205 -0.0904,-0.053 -0.18216,-0.0962 -0.27379,-0.13039 0.61237,-1.79717 0.37226,-3.58684 -0.24607,-5.20378 -0.75843,-1.9849 -2.08279,-3.71409 -3.09442,-4.89702 -1.19384,-1.65717 -1.68549,-2.99877 -2.464,-4.79775 0.0169,-1.51224 0.10088,-3.67054 -0.49161,-5.4517 -0.59249,-1.78117 -1.98462,-2.63688 -4.55069,-3.18895 -0.21869,-3.8e-4 -0.20062,0.0696 -0.43835,0.0884 -6.01024,0.47875 -4.416,6.76256 -4.5053,8.86646 0.32104,2.02616 -0.24035,3.05616 -1.30993,4.56035 -1.25609,1.47827 -2.96379,4.23677 -3.61689,6.48422 -0.64155,1.35824 -1.01437,1.94719 -0.84094,3.08142 -0.0544,0.0483 -0.10596,0.099 -0.15557,0.15085 -0.3687,0.38999 -0.64135,0.86202 -0.94496,1.17975 -0.28376,0.28045 -0.68778,0.38689 -1.13227,0.54433 -0.4445,0.15792 -0.93226,0.39038 -1.22833,0.95278 0,0 0,4.3e-4 -3.9e-4,4.3e-4 -4e-4,7.9e-4 -8e-4,0.002 -0.002,0.003 -0.1393,0.25724 -0.18454,0.53491 -0.18454,0.8165 0,0.26039 0.0389,0.52435 0.0782,0.77841 0.0817,0.52862 0.1647,1.02854 0.0548,1.36712 -0.35164,0.95161 -0.39688,1.60945 -0.14922,2.08706 0.24843,0.47835 0.75842,0.68925 1.33507,0.80865 1.15331,0.23799 2.71501,0.17908 3.94571,0.82475 l 0.10597,-0.19755 -0.10478,0.19793 c 1.31762,0.6818 2.6535,0.92377 3.71911,0.68298 0.7731,-0.17433 1.40016,-0.62991 1.72242,-1.3306 0.83344,-0.004 1.74823,-0.35347 3.21348,-0.43315 0.99417,-0.0794 2.23598,0.3495 3.66433,0.27095 0.0373,0.15317 0.0913,0.30084 0.16511,0.44105 8.3e-4,9e-4 0.002,0.003 0.002,0.004 0.55359,1.09574 1.58229,1.59687 2.67889,1.51126 1.09771,-0.0857 2.26491,-0.72618 3.20871,-1.83723 l -0.17303,-0.14375 0.17426,0.14217 c 0.89933,-1.07924 2.39196,-1.52657 3.38216,-2.11725 0.4949,-0.29534 0.89614,-0.66526 0.9275,-1.20257 0.0309,-0.53687 -0.28782,-1.13855 -1.02045,-1.94326 z"
           id="path3"
           style="fill:#161320;fill-opacity:1;stroke:#2f2930;stroke-width:0.0102352;stroke-opacity:1"
           inkscape:connector-curvature="0"
           sodipodi:nodetypes="ccccccccccsccccccccccccscccccccccccccccccccc" />
        <path
           d="m 181.85235,338.74932 c -0.019,0.33143 -0.26153,0.57772 -0.70961,0.84478 -0.89538,0.53452 -2.48248,0.99952 -3.49565,2.21427 -0.8803,1.03643 -1.95345,1.60551 -2.89837,1.67934 -0.94492,0.0738 -1.76013,-0.31419 -2.24115,-1.26894 l -8.3e-4,-0.002 -0.001,-0.003 c -0.29848,-0.56161 -0.17426,-1.44724 0.077,-2.38192 0.25123,-0.93433 0.61238,-1.89418 0.6608,-2.67376 v -0.003 c 0.0508,-0.99908 0.10755,-1.87179 0.27698,-2.54534 0.16986,-0.67354 0.43695,-1.12912 0.91007,-1.38558 0.0222,-0.0118 0.044,-0.0231 0.0658,-0.0337 0.0536,0.8652 0.48661,1.74812 1.25174,1.93895 0.83744,0.2184 2.04433,-0.4925 2.55392,-1.07257 0.10195,-0.004 0.20117,-0.009 0.29765,-0.0114 0.44728,-0.0106 0.82192,0.0149 1.2053,0.34639 l 0.001,9e-4 10e-4,8.3e-4 c 0.29447,0.24703 0.43458,0.7136 0.55602,1.23595 0.12148,0.52277 0.21827,1.09181 0.58265,1.49751 l 3.9e-4,3.9e-4 4e-4,8.2e-4 c 0.70013,0.76859 0.92515,1.2878 0.9057,1.61966 z"
           id="path5"
           style="fill:#f8bd96;fill-opacity:1;stroke:#ff6600;stroke-width:0.0102352"
           inkscape:connector-curvature="0" />
        <path
           d="m 164.83642,341.19922 -4e-4,0.003 v 0.003 c -0.081,1.05018 -0.67945,1.62201 -1.5986,1.82977 -0.91837,0.20776 -2.16416,8.3e-4 -3.40795,-0.64291 -4e-4,0 -7.9e-4,-4e-4 -10e-4,-4e-4 -1.37636,-0.72146 -3.01346,-0.64958 -4.06398,-0.86677 -0.52507,-0.1084 -0.86797,-0.27178 -1.02513,-0.57497 -0.15716,-0.30359 -0.16073,-0.8326 0.17343,-1.73473 l 0.002,-0.004 10e-4,-0.004 c 0.1655,-0.50467 0.0429,-1.05685 -0.0373,-1.57527 -0.0802,-0.51798 -0.11945,-0.98967 0.0595,-1.31804 l 0.002,-0.003 c 0.229,-0.43672 0.56475,-0.59303 0.98147,-0.7407 0.41711,-0.14806 0.91122,-0.26428 1.30135,-0.65155 l 0.002,-0.002 0.002,-0.002 c 0.36075,-0.37664 0.63182,-0.8491 0.94892,-1.18411 0.26749,-0.28276 0.53538,-0.4701 0.939,-0.47285 0.005,4.3e-4 0.009,4.3e-4 0.0139,0 0.0707,4.3e-4 0.14565,0.006 0.22503,0.0185 0.53578,0.0801 1.00289,0.45082 1.45295,1.05485 l 1.29936,2.34347 4e-4,9e-4 7.9e-4,7.9e-4 c 0.34567,0.71438 1.07593,1.50025 1.69465,2.30184 0.61872,0.80122 1.09736,1.60594 1.03505,2.22175 z"
           id="path7"
           style="fill:#f8bd96;fill-opacity:1;stroke:#ff6600;stroke-width:0.0102352"
           inkscape:connector-curvature="0" />
        <path
           d="m 171.31656,319.35275 c -0.10438,-0.20226 -0.3175,-0.3947 -0.68024,-0.54198 l -8e-4,-3.9e-4 -0.001,-3.9e-4 c -0.75445,-0.3197 -1.08187,-0.34248 -1.50296,-0.61346 -0.6854,-0.43595 -1.25173,-0.58871 -1.72242,-0.58675 -0.24646,7.8e-4 -0.46673,0.044 -0.66397,0.11154 -0.57348,0.19518 -0.95409,0.60245 -1.1926,0.82593 l -4e-4,3.8e-4 c 0,4e-4 -4e-4,4e-4 -4e-4,8e-4 -0.0468,0.044 -0.10715,0.0841 -0.2532,0.19008 -0.14725,0.10643 -0.36791,0.26667 -0.6854,0.50231 -0.28218,0.20933 -0.37386,0.48189 -0.27623,0.80119 0.0972,0.3193 0.40839,0.68768 0.97751,1.00619 l 7.9e-4,7.9e-4 0.001,3.9e-4 c 0.35321,0.2054 0.59452,0.48228 0.87153,0.70261 0.13851,0.10997 0.28416,0.20815 0.45958,0.28238 0.17542,0.0743 0.3802,0.1245 0.63659,0.13942 0.60165,0.0346 1.04456,-0.14413 1.43549,-0.36564 0.3917,-0.22111 0.72346,-0.49171 1.10409,-0.61385 l 8e-4,-3.9e-4 8.3e-4,-3.9e-4 c 0.78021,-0.24115 1.33667,-0.72697 1.51086,-1.18843 0.0873,-0.23093 0.0845,-0.45008 -0.0194,-0.65234 z"
           id="path9"
           style="fill:#f8bd96;fill-opacity:1;stroke:#ff6600;stroke-width:0.0102352"
           inkscape:connector-curvature="0" />
        <path
           d="m 169.33696,320.41332 c -0.62074,0.29755 -1.34579,0.65842 -2.11732,0.65842 -0.77113,0 -1.38033,-0.32775 -1.81847,-0.64711 -0.21908,-0.15949 -0.39688,-0.31825 -0.53102,-0.43359 -0.23274,-0.16894 -0.20486,-0.40591 -0.10924,-0.39891 0.16028,0.0184 0.18452,0.21248 0.28545,0.29928 0.13652,0.11752 0.30758,0.26972 0.51475,0.42081 0.41434,0.30184 0.96678,0.59564 1.65853,0.59564 0.69055,0 1.49668,-0.37282 1.98873,-0.62666 0.27877,-0.14381 0.6335,-0.40159 0.92299,-0.59701 0.22149,-0.14951 0.21341,-0.32954 0.39628,-0.30993 0.18288,0.0196 0.0476,0.19927 -0.2085,0.4048 -0.2561,0.20555 -0.65676,0.47827 -0.98218,0.63426 z"
           id="path11"
           inkscape:connector-curvature="0"
           style="fill:#000000;fill-opacity:1;stroke-width:0.00986677"
           sodipodi:nodetypes="sscccccssszzs" />
        <path
           d="m 178.84207,333.60052 c -0.0861,-0.003 -0.17106,-0.003 -0.2536,-7.8e-4 -0.008,3.9e-4 -0.0151,3.9e-4 -0.023,3.9e-4 0.21312,-0.66609 -0.25836,-1.1574 -1.51487,-1.7198 -1.30293,-0.56708 -2.34116,-0.51095 -2.51657,0.63976 -0.0111,0.0601 -0.0202,0.12176 -0.027,0.18381 -0.0976,0.0337 -0.19526,0.0762 -0.29368,0.12921 -0.61158,0.33147 -0.94575,0.93236 -1.13149,1.66997 -0.18534,0.73677 -0.23891,1.62711 -0.28971,2.6282 v 7.9e-4 c -0.0314,0.50313 -0.24091,1.18411 -0.45284,1.90521 -2.13438,1.5069 -5.09664,2.15963 -7.61202,0.46064 -0.17026,-0.26667 -0.36592,-0.53098 -0.56714,-0.79176 -0.12858,-0.16649 -0.26074,-0.33186 -0.39171,-0.4952 0.25797,3.9e-4 0.47744,-0.0417 0.65484,-0.12097 0.22067,-0.0994 0.37544,-0.25803 0.45244,-0.46229 0.15319,-0.40805 -8e-4,-0.98381 -0.49173,-1.64165 -0.49093,-0.65744 -1.32238,-1.39933 -2.54395,-2.14082 v -3.9e-4 c -0.89774,-0.55258 -1.39938,-1.2297 -1.63433,-1.96487 -0.23534,-0.7356 -0.2024,-1.53089 -0.021,-2.31598 0.34766,-1.50694 1.24062,-2.97263 1.81053,-3.89243 0.15319,-0.11153 0.0548,0.20737 -0.57705,1.3683 -0.56594,1.06122 -1.93224,2.96197 -0.48326,4.87386 0.16537,-2.0557 0.17641,-2.08036 0.73366,-3.37585 0.19476,-0.45274 0.57935,-1.10488 0.85176,-1.68982 0.27241,-0.58494 0.83879,-0.97827 1.81522,-1.27127 0,0 -0.93811,-0.13964 -1.1108,-0.75643 -0.14351,-0.51253 1.10539,-1.52694 1.19975,-1.86243 0.18872,-0.67101 0.31867,-1.33294 0.35201,-1.95524 0.069,0.0495 0.30519,0.20737 0.41036,0.26667 4e-4,4e-4 4e-4,4e-4 7.9e-4,4e-4 0.30798,0.17948 0.53936,0.44182 0.839,0.68022 0.30043,0.23878 0.67548,0.44497 1.24222,0.47757 0.0544,0.003 0.10755,0.005 0.15954,0.005 0.5842,0 1.0398,-0.18851 1.41921,-0.40334 0.41239,-0.23328 0.74176,-0.49171 1.05413,-0.59225 4e-4,-3.9e-4 8e-4,-3.9e-4 0.001,-3.9e-4 0.66,-0.20423 1.18428,-0.56555 1.48269,-0.98656 0.51275,1.99983 1.70496,4.88842 2.47136,6.29795 0.4076,0.74778 1.21797,2.3368 1.56806,4.2514 0.22184,-0.006 0.46632,0.0251 0.72786,0.0915 0.91558,-2.34897 -0.77629,-4.8786 -1.55019,-5.58317 -0.31234,-0.30005 -0.32742,-0.43437 -0.17224,-0.42809 0.83898,0.73481 1.94106,2.21191 2.34195,3.87948 0.18292,0.7603 0.22185,1.55996 0.0258,2.34897 0.0956,0.0392 0.19327,0.0821 0.29209,0.12846 1.46962,0.70807 2.01294,1.32388 1.7518,2.16434 z"
           id="path13"
           inkscape:connector-curvature="0"
           style="fill:#d9e0ee;fill-opacity:1;stroke-width:0.0102352"
           sodipodi:nodetypes="ccccccccccccccccccccccccsscsscccccsccccccccccccc" />
        <path
           d="m 171.38562,317.04895 c 0.003,0.39627 -0.0659,0.73363 -0.21789,1.07806 -0.0865,0.19637 -0.18609,0.36132 -0.30555,0.50428 -0.0405,-0.0193 -0.0825,-0.0377 -0.12624,-0.0553 -0.15122,-0.064 -0.28496,-0.11664 -0.40478,-0.16142 -0.11989,-0.0447 -0.21343,-0.0753 -0.30991,-0.10835 0.0699,-0.0837 0.20757,-0.18223 0.2588,-0.30594 0.0778,-0.18655 0.11589,-0.36879 0.12303,-0.58597 0,-0.009 0.003,-0.0161 0.003,-0.0263 0.004,-0.20815 -0.0234,-0.38606 -0.0849,-0.56829 -0.0322,-0.0956 -0.36253,0.0591 -0.4058,-0.0134 -0.0433,-0.0725 0.2006,-0.37245 0.14149,-0.42959 -0.11868,-0.11429 -0.23694,-0.16613 -0.37902,-0.17084 -0.007,-3.9e-4 -0.0131,-3.9e-4 -0.0199,-3.9e-4 -0.13334,3.9e-4 -0.24923,0.046 -0.36912,0.14492 -0.12582,0.10407 -0.21908,0.23721 -0.29683,0.42259 -0.0774,0.18536 -0.11549,0.36917 -0.12307,0.58753 -0.001,0.009 -0.001,0.0161 -0.001,0.0247 -0.003,0.12018 0.005,0.23014 0.0238,0.33698 -0.27304,-0.13472 -0.62238,-0.23295 -0.86367,-0.28989 -0.0139,-0.10329 -0.0218,-0.20972 -0.0242,-0.32126 v -0.0302 c -0.004,-0.39509 0.0611,-0.73403 0.2147,-1.07807 0.15359,-0.34443 0.34369,-0.59185 0.61115,-0.79333 0.26788,-0.20109 0.53106,-0.29337 0.84256,-0.29652 h 0.0147 c 0.30481,0 0.56555,0.0888 0.83343,0.28081 0.27187,0.19558 0.46792,0.43987 0.62587,0.78155 0.15478,0.33304 0.2294,0.65863 0.23698,1.04469 -4e-5,0.0102 -4e-5,0.0188 0.003,0.0291 z"
           id="path15"
           inkscape:connector-curvature="0"
           style="fill:#d9e0ee;fill-opacity:1;stroke-width:0.0102352"
           sodipodi:nodetypes="ccccccccccsccccccccccccccscccc" />
        <path
           d="m 166.77872,317.44365 c -0.0401,0.0114 -0.079,0.0236 -0.11748,0.0365 -0.21828,0.0746 -0.39159,0.15697 -0.55907,0.26653 0.0163,-0.11468 0.0186,-0.23092 0.006,-0.36092 -0.001,-0.007 -0.001,-0.013 -0.001,-0.0201 -0.0175,-0.1724 -0.0544,-0.31694 -0.11588,-0.46304 -0.0327,-0.076 -0.3178,0.1177 -0.35639,0.0616 -0.0386,-0.0561 0.16926,-0.36202 0.12104,-0.40325 -0.0873,-0.0746 -0.16986,-0.10918 -0.26114,-0.1084 -0.009,0 -0.0187,3.9e-4 -0.0282,9e-4 -0.10239,0.009 -0.18732,0.0581 -0.2679,0.15513 -0.0802,0.0966 -0.13295,0.21679 -0.17105,0.37624 -0.0381,0.15906 -0.048,0.31538 -0.0321,0.49486 0,0.007 0.002,0.013 0.002,0.02 0.0175,0.17399 0.0528,0.31851 0.11548,0.46461 0.0643,0.15042 0.13892,0.25764 0.23536,0.34011 0.0163,0.0138 0.0321,0.0263 0.048,0.0373 -0.10001,0.0766 -0.16721,0.13091 -0.24977,0.19061 -0.0528,0.0381 -0.11549,0.0836 -0.18851,0.13706 -0.15914,-0.14766 -0.28336,-0.33304 -0.3921,-0.57772 -0.1286,-0.28905 -0.19726,-0.5785 -0.21789,-0.92018 v -0.003 c -0.019,-0.34168 0.0147,-0.63546 0.10953,-0.93944 0.0952,-0.30397 0.22226,-0.52391 0.4068,-0.70457 0.18415,-0.18105 0.36989,-0.27217 0.59372,-0.28356 0.0175,-7.8e-4 0.0345,-9e-4 0.0516,-9e-4 0.2028,4e-4 0.38378,0.0671 0.5711,0.21522 0.2032,0.16064 0.35678,0.36604 0.48538,0.65549 0.12898,0.28944 0.19764,0.5789 0.21669,0.92058 v 0.003 c 0.009,0.14335 0.008,0.27845 -0.004,0.40923 z"
           id="path17"
           inkscape:connector-curvature="0"
           style="fill:#d9e0ee;fill-opacity:1;stroke-width:0.0102352"
           sodipodi:nodetypes="ccccccscccccccccccccccccccccccc" />
        <path
           sodipodi:nodetypes="aaaaaaa"
           inkscape:connector-curvature="0"
           id="path28396-7"
           d="m 167.79695,318.26093 c 0.0257,0.0815 0.15848,0.068 0.23521,0.10713 0.0673,0.0343 0.12147,0.10953 0.19717,0.11169 0.0722,0.002 0.18469,-0.0247 0.19409,-0.0957 0.0124,-0.0937 -0.12584,-0.15322 -0.21481,-0.18755 -0.11448,-0.0442 -0.26116,-0.0666 -0.36856,-0.007 -0.0246,0.0135 -0.0515,0.0453 -0.0431,0.0719 z"
           style="fill:#000000;fill-opacity:1;stroke:none;stroke-width:0.0102352" />
        <path
           style="fill:#000000;fill-opacity:1;stroke:none;stroke-width:0.0102352"
           d="m 167.01256,318.26093 c -0.0257,0.0815 -0.15847,0.068 -0.2352,0.10713 -0.0673,0.0343 -0.12147,0.10953 -0.19717,0.11169 -0.0722,0.002 -0.1847,-0.0247 -0.19409,-0.0957 -0.0124,-0.0937 0.12584,-0.15322 0.21481,-0.18755 0.11449,-0.0442 0.26116,-0.0666 0.36856,-0.007 0.0246,0.0135 0.0515,0.0453 0.0431,0.0719 z"
           id="path5461"
           inkscape:connector-curvature="0"
           sodipodi:nodetypes="aaaaaaa" />
        <path
           style="fill:#d9e0ee;fill-opacity:1;stroke:#000000;stroke-width:0.0164752"
           d="m 172.83945,321.44659 c -0.24259,-0.19633 -0.32047,-0.29844 -0.46033,-0.6035 -0.14993,-0.32704 -0.1608,-0.71889 -0.0215,-0.77495 0.13513,-0.0544 0.7225,0.26355 1.02249,0.55345 0.19663,0.19002 0.24218,0.27877 0.24218,0.47181 0,0.45913 -0.41862,0.64799 -0.78284,0.35319 z m -2.74195,-8.45846 c -0.0416,-0.0437 -0.0745,-0.25276 -0.0745,-0.47362 0,-0.50303 0.10907,-0.68478 0.41096,-0.68478 0.2827,0 0.43456,0.0895 0.55027,0.32409 0.19274,0.39089 0.0945,0.61469 -0.35647,0.8123 -0.27464,0.12034 -0.43036,0.1268 -0.53029,0.022 z"
           id="path990"
           inkscape:connector-curvature="0"
           sodipodi:nodetypes="scsssscsscsc" />
        <path
           style="fill:#d9e0ee;fill-opacity:1;stroke-width:0.0167597"
           d="m 166.26709,315.26581 c -0.47661,-0.38343 -0.56833,-0.60674 -0.21866,-0.53235 0.26944,0.0573 0.6026,0.30909 0.72605,0.54868 0.22489,0.43645 0.0483,0.43077 -0.50739,-0.0163 z m 4.74268,0.0107 c -0.155,-0.17791 -0.39458,-0.38118 -0.53238,-0.45174 -0.33836,-0.17324 -0.34365,-0.35168 -0.009,-0.28933 0.35454,0.066 0.64117,0.26781 0.82334,0.57977 0.3247,0.55603 0.14898,0.6564 -0.28239,0.1613 z"
           id="path990-0-5"
           inkscape:connector-curvature="0"
           sodipodi:nodetypes="cscccsccc" />
        <path
           style="fill:#000000;fill-rule:evenodd;stroke:#ffffff;stroke-width:0.00959546px;stroke-linecap:butt;stroke-linejoin:miter;stroke-opacity:1"
           d="m 173.62466,326.7095 c 0,0 -0.93276,-1.51628 -1.47761,-1.64499 -0.71889,-0.16982 -2.70895,0.12185 -2.70895,0.12185 0,0 1.82729,0.30059 2.46268,0.42648 0.59593,0.11807 1.72388,1.09666 1.72388,1.09666 z"
           id="path994"
           inkscape:connector-curvature="0"
           sodipodi:nodetypes="cscsc" />
        <path
           style="fill:#000000;fill-rule:evenodd;stroke:#ffffff;stroke-width:0.00554752px;stroke-linecap:butt;stroke-linejoin:miter;stroke-opacity:1"
           d="m 165.79625,327.77205 c 0,0 -0.3506,2.57305 -0.39796,3.88135 -0.051,1.41062 0.12436,4.23419 0.12436,4.23419 0,0 0.11401,-3.52866 0.17411,-5.29274 0.0321,-0.94103 0.0995,-2.8228 0.0995,-2.8228 z"
           id="path996"
           inkscape:connector-curvature="0"
           sodipodi:nodetypes="cscsc" />
        <path
           style="fill:#000000;fill-rule:evenodd;stroke:#ffffff;stroke-width:0.0066702px;stroke-linecap:butt;stroke-linejoin:miter;stroke-opacity:1"
           d="m 165.77726,325.28703 c 0,0 0.42211,-0.0605 0.7203,-0.068 0.29611,-0.007 1.04045,-0.12968 1.04045,-0.12968 0,0 -0.92401,-0.039 -1.4006,0.0617 -0.27001,0.0571 -0.76032,0.31708 -0.76032,0.31708 z"
           id="path998"
           inkscape:connector-curvature="0"
           sodipodi:nodetypes="cscscc" />
      </g>
      <g
         id="g12"
         transform="matrix(0.09040794,0,0,0.09040794,388.48481,251.42206)"
         style="fill:#abe9b3;stroke-width:2.92655">
        <g
           id="g10"
           style="fill:#abe9b3;stroke-width:2.92655">
          <path
             d="m 76.774,179.141 c -9.529,0 -17.614,3.323 -24.26,9.969 -6.646,6.646 -9.97,14.621 -9.97,23.929 v 142.914 c 0,9.541 3.323,17.619 9.97,24.266 6.646,6.646 14.731,9.97 24.26,9.97 9.522,0 17.558,-3.323 24.101,-9.97 6.53,-6.646 9.804,-14.725 9.804,-24.266 V 213.039 c 0,-9.309 -3.323,-17.283 -9.97,-23.929 -6.647,-6.646 -14.627,-9.969 -23.935,-9.969 z"
             id="path2-3"
             style="fill:#abe9b3;stroke-width:2.92655" />
          <path
             d="M 351.972,50.847 375.57,7.315 c 1.549,-2.882 0.998,-5.092 -1.658,-6.646 -2.883,-1.34 -5.098,-0.661 -6.646,1.989 l -23.928,43.88 c -21.055,-9.309 -43.324,-13.972 -66.807,-13.972 -23.488,0 -45.759,4.664 -66.806,13.972 L 185.796,2.658 c -1.555,-2.65 -3.77,-3.323 -6.646,-1.989 -2.662,1.561 -3.213,3.764 -1.658,6.646 l 23.599,43.532 c -23.929,12.203 -42.987,29.198 -57.167,51.022 -14.18,21.836 -21.273,45.698 -21.273,71.628 h 307.426 c 0,-25.924 -7.094,-49.787 -21.273,-71.628 C 394.623,80.045 375.675,63.05 351.972,50.847 Z m -136.433,63.318 c -2.552,2.558 -5.6,3.831 -9.143,3.831 -3.55,0 -6.536,-1.273 -8.972,-3.831 -2.436,-2.546 -3.654,-5.582 -3.654,-9.137 0,-3.543 1.218,-6.585 3.654,-9.137 2.436,-2.546 5.429,-3.819 8.972,-3.819 3.543,0 6.591,1.273 9.143,3.819 2.546,2.558 3.825,5.594 3.825,9.137 -0.007,3.549 -1.285,6.591 -3.825,9.137 z m 140.086,0 c -2.441,2.558 -5.434,3.831 -8.971,3.831 -3.551,0 -6.598,-1.273 -9.145,-3.831 -2.551,-2.546 -3.824,-5.582 -3.824,-9.137 0,-3.543 1.273,-6.585 3.824,-9.137 2.547,-2.546 5.594,-3.819 9.145,-3.819 3.543,0 6.529,1.273 8.971,3.819 2.438,2.558 3.654,5.594 3.654,9.137 0,3.549 -1.217,6.591 -3.654,9.137 z"
             id="path4-6"
             style="fill:#abe9b3;stroke-width:2.92655" />
          <path
             d="m 123.971,406.804 c 0,10.202 3.543,18.838 10.63,25.925 7.093,7.087 15.729,10.63 25.924,10.63 h 24.596 l 0.337,75.454 c 0,9.528 3.323,17.619 9.969,24.266 6.646,6.647 14.627,9.97 23.929,9.97 9.523,0 17.613,-3.323 24.26,-9.97 6.647,-6.647 9.97,-14.737 9.97,-24.266 v -75.447 h 45.864 v 75.447 c 0,9.528 3.322,17.619 9.969,24.266 6.647,6.647 14.73,9.97 24.26,9.97 9.523,0 17.613,-3.323 24.26,-9.97 6.647,-6.647 9.969,-14.737 9.969,-24.266 v -75.447 h 24.928 c 9.969,0 18.494,-3.544 25.594,-10.631 7.086,-7.087 10.631,-15.723 10.631,-25.924 V 185.45 h -305.09 z"
             id="path6-1"
             style="fill:#abe9b3;stroke-width:2.92655" />
          <path
             d="m 476.275,179.141 c -9.309,0 -17.283,3.274 -23.93,9.804 -6.646,6.542 -9.969,14.578 -9.969,24.094 v 142.914 c 0,9.541 3.322,17.619 9.969,24.266 6.647,6.647 14.627,9.97 23.93,9.97 9.523,0 17.613,-3.323 24.26,-9.97 6.647,-6.647 9.969,-14.725 9.969,-24.266 V 213.039 c 0,-9.517 -3.322,-17.552 -9.969,-24.094 -6.647,-6.53 -14.737,-9.804 -24.26,-9.804 z"
             id="path8-0"
             style="fill:#abe9b3;stroke-width:2.92655" />
        </g>
      </g>
    </g>
    <g
       id="g14"
       transform="matrix(0.26458333,0,0,0.26458333,160.61584,239.75503)"
       style="fill:#abe9b3" />
    <g
       id="g16"
       transform="matrix(0.26458333,0,0,0.26458333,160.61584,239.75503)"
       style="fill:#abe9b3" />
    <g
       id="g18"
       transform="matrix(0.26458333,0,0,0.26458333,160.61584,239.75503)"
       style="fill:#abe9b3" />
    <g
       id="g20"
       transform="matrix(0.26458333,0,0,0.26458333,160.61584,239.75503)"
       style="fill:#abe9b3" />
    <g
       id="g22"
       transform="matrix(0.26458333,0,0,0.26458333,160.61584,239.75503)"
       style="fill:#abe9b3" />
    <g
       id="g24"
       transform="matrix(0.26458333,0,0,0.26458333,160.61584,239.75503)"
       style="fill:#abe9b3" />
    <g
       id="g26"
       transform="matrix(0.26458333,0,0,0.26458333,160.61584,239.75503)"
       style="fill:#abe9b3" />
    <g
       id="g28"
       transform="matrix(0.26458333,0,0,0.26458333,160.61584,239.75503)"
       style="fill:#abe9b3" />
    <g
       id="g30"
       transform="matrix(0.26458333,0,0,0.26458333,160.61584,239.75503)"
       style="fill:#abe9b3" />
    <g
       id="g32"
       transform="matrix(0.26458333,0,0,0.26458333,160.61584,239.75503)"
       style="fill:#abe9b3" />
    <g
       id="g34"
       transform="matrix(0.26458333,0,0,0.26458333,160.61584,239.75503)"
       style="fill:#abe9b3" />
    <g
       id="g36"
       transform="matrix(0.26458333,0,0,0.26458333,160.61584,239.75503)"
       style="fill:#abe9b3" />
    <g
       id="g38"
       transform="matrix(0.26458333,0,0,0.26458333,160.61584,239.75503)"
       style="fill:#abe9b3" />
    <g
       id="g40"
       transform="matrix(0.26458333,0,0,0.26458333,160.61584,239.75503)"
       style="fill:#abe9b3" />
    <g
       id="g42"
       transform="matrix(0.26458333,0,0,0.26458333,160.61584,239.75503)"
       style="fill:#abe9b3" />
  </g>
</svg>
