<?xml version="1.0" encoding="UTF-8" standalone="no"?>
<!-- Created with Inkscape (http://www.inkscape.org/) -->

<svg
   width="1016mm"
   height="571.5mm"
   viewBox="0 0 1016 571.5"
   version="1.1"
   id="svg8569"
   inkscape:export-filename="/home/mm/bitmap.png"
   inkscape:export-xdpi="96"
   inkscape:export-ydpi="96"
   inkscape:version="1.1.2 (0a00cf5339, 2022-02-04, custom)"
   sodipodi:docname="cat-eye.svg"
   xmlns:inkscape="http://www.inkscape.org/namespaces/inkscape"
   xmlns:sodipodi="http://sodipodi.sourceforge.net/DTD/sodipodi-0.dtd"
   xmlns="http://www.w3.org/2000/svg"
   xmlns:svg="http://www.w3.org/2000/svg">
  <sodipodi:namedview
     id="namedview8571"
     pagecolor="#ffffff"
     bordercolor="#666666"
     borderopacity="1.0"
     inkscape:pageshadow="2"
     inkscape:pageopacity="0.0"
     inkscape:pagecheckerboard="0"
     inkscape:document-units="mm"
     showgrid="false"
     showborder="false"
     inkscape:object-paths="false"
     inkscape:snap-others="false"
     inkscape:snap-smooth-nodes="false"
     inkscape:snap-intersection-paths="false"
     inkscape:snap-nodes="true"
     units="mm"
     inkscape:zoom="0.1767767"
     inkscape:cx="2143.9478"
     inkscape:cy="989.94949"
     inkscape:window-width="1896"
     inkscape:window-height="1020"
     inkscape:window-x="9"
     inkscape:window-y="45"
     inkscape:window-maximized="1"
     inkscape:current-layer="layer1" />
  <defs
     id="defs8566">
    <inkscape:path-effect
       effect="curvestitching"
       id="path-effect15269"
       is_visible="true"
       lpeversion="1"
       count="75"
       startpoint_edge_variation="0;1"
       startpoint_spacing_variation="0;1"
       endpoint_edge_variation="0;1"
       endpoint_spacing_variation="0;1"
       strokepath="M 0,0 C 308.35927,24.571092 498.65385,192.07675 539.07482,168.35562 613.51185,124.6721 325.05281,-148.63261 355.92861,-200.16745"
       prop_scale="1"
       scale_y_rel="false"
       strokepath-nodetypes="csc" />
    <inkscape:path-effect
       effect="curvestitching"
       id="path-effect9053"
       is_visible="true"
       lpeversion="1"
       count="75"
       startpoint_edge_variation="0;1"
       startpoint_spacing_variation="0;1"
       endpoint_edge_variation="0;1"
       endpoint_spacing_variation="-1.1;1"
       strokepath="M 0,0 H 0.26458333"
       prop_scale="1"
       scale_y_rel="false" />
  </defs>
  <g
     inkscape:label="Layer 1"
     inkscape:groupmode="layer"
     id="layer1">
    <rect
       style="fill:#1e1e2e;fill-opacity:1;stroke:#1e1e2e;stroke-width:0.529167;stroke-miterlimit:4;stroke-dasharray:none"
       id="rect15990"
       width="1015.4709"
       height="570.97083"
       x="0.2645835"
       y="0.2645835"
       inkscape:export-filename="/home/mm/Obrazy/catt-blue-eye.png"
       inkscape:export-xdpi="96"
       inkscape:export-ydpi="96" />
    <path
       id="circle15166"
       style="fill:none;stroke:#96cdfb;stroke-width:0.529167"
       d="m 518.00981,294.60365 c 26.90095,14.7398 43.50207,115.22373 47.02836,100.99381 6.49381,-26.20503 -18.67107,-190.15611 -15.9775,-221.07102 M 517.2208,295.4171 c 25.54535,16.95827 33.59022,118.48462 38.30404,104.60328 8.68073,-25.56313 -2.53155,-191.0528 2.76239,-221.62981 m -41.92619,117.76514 c 23.99063,19.03952 23.44696,120.87876 29.3062,107.44204 10.79006,-24.74432 13.5678,-190.58459 21.41006,-220.60887 m -51.64047,113.82733 c 22.2514,20.97393 13.11883,122.39863 20.07923,109.49992 12.8179,-23.75357 29.57178,-188.76076 39.90369,-218.02132 m -60.96442,109.10023 c 20.34385,22.75142 2.66417,123.03331 10.6779,110.76369 14.75766,-22.59504 45.40577,-185.58483 58.15881,-213.87359 m -69.86739,103.6036 c 18.28555,24.36207 -7.84718,122.77307 1.16704,111.22124 16.6001,-21.27323 60.97604,-181.0624 76.06881,-208.17449 m -78.30686,97.3588 c 16.09542,25.79662 -18.33521,121.61367 -8.3796,110.8652 18.33369,-19.7938 76.1722,-175.20804 93.50769,-200.94332 m -86.23001,90.39313 c 13.79336,27.04704 -28.71244,119.5597 -17.88174,109.69599 19.94522,-18.16445 90.87151,-168.05093 110.33507,-192.21632 m -93.57641,82.74331 c 11.39971,28.10663 -38.88743,116.62686 -27.25559,107.72375 21.42054,-16.39546 104.94463,-159.63859 126.40292,-182.05107 m -100.28183,74.45768 c 8.93485,28.97025 -48.76879,112.84279 -36.41745,104.9691 22.74555,-14.49976 118.26235,-150.03825 141.56335,-170.52807 m -106.28242,65.59701 c 6.41863,29.63421 -58.26929,108.24651 -45.28722,101.4626 23.90706,-12.49286 130.70232,-139.33593 155.67645,-157.74964 m -111.51894,56.23374 c 3.86984,30.09604 -67.30953,102.88639 -53.79172,97.24303 C 477.82987,385.79793 595.0913,268.55742 621.55354,252.35445 M 505.613,298.80423 c 1.30603,30.35398 -75.82062,96.81679 -61.86689,92.35444 25.69639,-8.21761 152.52861,-115.04085 180.28126,-128.91888 m -119.50738,36.33307 c -1.25686,30.40662 -83.74549,90.0943 -69.45917,86.84279 26.30893,-5.98779 161.75033,-101.67445 190.58625,-113.13437 m -122.19199,25.97346 c -3.80434,30.25226 -91.03886,82.77349 -76.52517,80.7523 26.7276,-3.72212 169.76703,-87.64544 199.47275,-96.61455 m -123.97898,15.45842 c -6.32324,29.88844 -97.66549,74.90308 -83.03045,74.12204 26.95109,-1.4383 176.54224,-73.05585 206.90072,-79.48038 m -124.86331,4.86915 c -8.8013,29.31158 -103.59747,66.52287 -88.94687,66.9833 26.97971,0.8479 182.05147,-57.99296 212.84399,-61.83567 m -124.84719,-5.72269 c -11.22672,28.51671 -108.81032,57.66168 -94.2494,59.3577 26.81457,3.1233 186.27594,-42.52594 217.28305,-43.76313 M 499.57814,296.12434 c -13.58755,27.49729 -113.27848,48.33648 -98.912,51.25652 26.45651,5.37735 189.19506,-26.70444 220.19632,-25.32285 m -122.132,-26.68354 c -15.86562,26.24889 -116.9624,38.57752 -102.89454,42.70276 25.90658,7.59682 190.7762,-10.599 221.54935,-6.59904 M 497.95406,294.54936 c -18.01665,24.79199 -119.79044,28.54485 -106.11957,33.83675 25.1755,9.74526 190.9886,5.52614 221.31584,12.1011 M 497.25406,293.65653 c -20.02572,23.14309 -121.7487,18.30263 -108.56945,24.71817 24.27018,11.8145 189.84197,21.5859 219.51059,30.68085 M 496.63395,292.70272 c -21.88294,21.31759 -122.82738,7.9032 -110.23196,15.39653 23.19503,13.7993 187.34171,37.51544 216.14221,49.06719 M 496.09727,291.69557 c -23.5782,19.33237 -123.01556,-2.58921 -111.09391,5.93174 21.95424,15.6917 183.4914,53.23039 211.21719,67.16438 M 495.64731,290.64358 c -25.1019,17.20573 -122.3058,-13.09943 -111.14517,-3.60671 20.5528,17.4813 178.30038,68.6283 204.74872,84.85561 M 495.28678,289.5559 c -26.44532,14.95712 -120.69787,-23.54332 -110.38191,-13.14141 18.99729,19.15557 171.78992,83.59192 196.76385,102.00692 M 495.01766,288.44218 C 467.4166,301.04889 376.8159,254.61123 386.20838,265.85222 c 17.29668,20.70079 163.99802,97.99445 187.3091,118.47321 m -78.67651,-97.01324 c -28.56322,10.17492 -114.8391,-43.87039 -106.4426,-31.86813 15.46254,22.10268 154.98205,111.70573 176.45348,134.1055 m -70.095,-103.37402 c -29.32738,7.68195 -110.6434,-53.5718 -103.30762,-40.89359 13.50915,23.34748 144.81889,124.59917 164.28871,148.75895 m -60.9733,-108.99953 c -29.89053,5.14717 -105.65869,-62.85148 -99.43934,-49.58934 11.4532,24.42284 133.60282,136.55823 150.92675,162.30039 M 494.86306,283.91811 c -30.25059,2.58878 -99.93678,-71.63503 -94.87954,-57.88653 9.31314,25.31846 121.44097,147.48169 136.49443,174.61449 M 495.05054,282.81333 c -30.40608,0.0235 -93.53371,-79.85939 -89.67372,-65.7263 7.10837,26.0267 108.44737,157.28712 121.12669,185.60774 M 495.32545,281.73364 c -30.35547,-2.53337 -86.50553,-87.47348 -83.86736,-73.06024 4.85829,26.5426 94.73616,165.91183 104.95853,195.2096 M 495.68651,280.68485 c -30.09674,-5.06814 -78.9043,-94.43734 -77.50253,-79.84972 2.58145,26.86374 80.41492,173.31146 88.11737,203.37082 m -10.16834,-124.5339 c -29.62694,-7.56812 -70.77466,-100.71982 -70.61467,-86.06381 0.29461,26.98969 65.57882,179.45623 70.71617,210.0591 m 0.43051,-124.96742 c -28.94179,-10.02132 -62.15109,-106.29523 -63.23044,-91.67638 -1.98767,26.92129 50.30643,184.32536 52.84861,215.25262 M 497.28348,277.77307 C 469.24793,265.3571 444.22697,166.63388 441.9172,181.11065 c -4.25356,26.65963 34.65717,187.90014 34.58609,218.93197 M 497.99024,276.89634 C 471.08928,262.15653 454.48817,161.6726 450.96188,175.90253 c -6.49381,26.20503 18.67107,190.1561 15.97749,221.07102 M 498.77924,276.08289 C 473.23389,259.12462 465.18903,157.59827 460.4752,171.47962 c -8.68071,25.56311 2.53155,191.05279 -2.76239,221.6298 M 499.639,275.34428 C 475.64838,256.30475 476.19205,154.46553 470.33281,167.90224 459.54275,192.64655 456.765,358.48682 448.92273,388.51111 m 51.64049,-113.82734 c -22.25141,-20.97393 -13.11883,-122.39862 -20.07923,-109.49991 -12.8179,23.75356 -29.5718,188.76076 -39.9037,218.02131 M 501.54471,274.10495 C 481.20087,251.35353 498.88055,151.07165 490.86682,163.34126 476.10916,185.9363 445.46104,348.92609 432.708,377.21483 m 69.86739,-103.60359 c -18.28555,-24.36206 7.84719,-122.77306 -1.16704,-111.22122 -16.6001,21.27321 -60.97605,181.06239 -76.06882,208.17447 m 78.30688,-97.35878 c -16.09544,-25.79664 18.3352,-121.61368 8.3796,-110.8652 -18.3337,19.79379 -76.17222,175.20803 -93.5077,200.9433 m 86.23001,-90.39312 c -13.79336,-27.04704 28.71245,-119.5597 17.88175,-109.69599 -19.94523,18.16445 -90.87153,168.05093 -110.33509,192.21631 m 93.57642,-82.7433 C 494.47169,244.56108 544.75884,156.04086 533.127,164.94396 511.70645,181.33942 428.18236,324.58254 406.72406,346.99502 M 507.0059,272.53735 C 498.07105,243.5671 555.77469,159.69457 543.42335,167.56825 520.6778,182.06801 425.161,317.6065 401.86,338.09632 M 508.14242,272.49931 C 501.7238,242.86509 566.41171,164.2528 553.42964,171.03671 529.52259,183.52957 422.72733,310.37264 397.75319,328.78634 M 509.27213,272.5526 c -3.86985,-30.09603 67.30954,-102.88637 53.79171,-97.24302 -24.89367,10.39247 -142.15511,127.633 -168.61734,143.83595 m 115.94054,-46.44978 c -1.30603,-30.35398 75.82063,-96.81678 61.8669,-92.35443 -25.69639,8.21761 -152.52862,115.04084 -180.28128,128.91888 m 119.50739,-36.33307 c 1.25686,-30.40662 83.7455,-90.0943 69.45917,-86.8428 -26.30892,5.98781 -161.75033,101.67445 -190.58625,113.13437 m 122.19199,-25.97346 c 3.80434,-30.25224 91.03887,-82.77348 76.52518,-80.7523 -26.7276,3.72212 -169.76703,87.64544 -199.47277,96.61456 m 123.979,-15.45842 c 6.32324,-29.88844 97.66548,-74.90308 83.03043,-74.12205 -26.95109,1.43831 -176.54223,73.05585 -206.90071,79.48038 m 124.86331,-4.86914 c 8.80131,-29.31159 103.59748,-66.52287 88.94688,-66.9833 -26.97972,-0.8479 -182.05148,57.99296 -212.844,61.83566 m 124.84719,5.7227 c 11.22672,-28.51671 108.81032,-57.66168 94.24941,-59.3577 -26.81458,-3.1233 -186.27594,42.52594 -217.28306,43.76313 m 123.93608,16.25689 c 13.58755,-27.49729 113.27847,-48.33649 98.912,-51.25652 -26.45651,-5.37736 -189.19506,26.70444 -220.19631,25.32284 m 122.13199,26.68355 c 15.86563,-26.24889 116.9624,-38.57752 102.89455,-42.70276 -25.90659,-7.59682 -190.77621,10.59901 -221.54936,6.59904 m 119.43121,36.92883 c 18.01665,-24.79198 119.79044,-28.54486 106.11958,-33.83675 -25.17551,-9.74527 -190.98861,-5.52615 -221.31585,-12.1011 m 115.89627,46.83068 c 20.02573,-23.1431 121.7487,-18.30263 108.56945,-24.71817 -24.27018,-11.81451 -189.84198,-21.5859 -219.5106,-30.68086 m 111.56126,56.35284 c 21.88294,-21.3176 122.82738,-7.90321 110.23196,-15.39653 -23.19503,-13.79931 -187.34171,-37.51543 -216.1422,-49.06719 m 106.44692,65.47087 c 23.57821,-19.33238 123.01557,2.58921 111.09392,-5.93174 -21.95425,-15.6917 -183.49141,-53.23039 -211.2172,-67.16437 m 100.57324,74.14811 c 25.10191,-17.20574 122.30579,13.09941 111.14517,3.60669 -20.5528,-17.48129 -178.30038,-68.62829 -204.74872,-84.8556 m 93.96407,82.33658 c 26.44532,-14.95712 120.69789,23.54332 110.38193,13.1414 -18.9973,-19.15558 -171.78992,-83.59191 -196.76385,-102.00691 m 86.65105,89.97922 c 27.60107,-12.60669 118.20177,33.83096 108.80929,22.58996 -17.2967,-20.70079 -163.99804,-97.99444 -187.30911,-118.4732 m 78.67651,97.01324 c 28.56322,-10.17492 114.8391,43.87037 106.4426,31.86812 C 612.13913,293.95324 472.61962,204.35019 451.14819,181.95042 m 70.09499,103.37403 C 550.57057,277.6425 631.8866,338.89624 624.55083,326.21803 611.04167,302.87055 479.73192,201.61886 460.26209,177.45908 m 60.97331,108.99954 c 29.89053,-5.14718 105.65869,62.85147 99.43935,49.58933 C 609.22154,311.62512 487.07192,199.48973 469.74799,173.74757 m 51.38899,113.8343 c 30.25059,-2.58878 99.93679,71.63503 94.87954,57.88654 C 606.70338,320.14994 494.57555,197.98672 479.52209,170.85392 m 41.42742,117.83274 c 30.40608,-0.0235 93.53371,79.85938 89.67371,65.7263 C 603.51486,328.38625 502.17584,197.12584 489.49653,168.80522 m 31.17807,120.96112 c 30.35546,2.53338 86.50552,87.47348 83.86736,73.06025 -4.8583,-26.54261 -94.73617,-165.91183 -104.95855,-195.2096 m 20.73012,123.19814 c 30.09674,5.06815 78.90431,94.43734 77.50253,79.84973 -2.58144,-26.86374 -80.41492,-173.31145 -88.11737,-203.37081 m 10.16834,124.53389 c 29.62694,7.56812 70.77467,100.71981 70.61468,86.0638 -0.29461,-26.98968 -65.57883,-179.45622 -70.71619,-210.05909 m -0.4305,124.96741 c 28.94179,10.02132 62.1511,106.29524 63.23045,91.67638 1.98767,-26.92128 -50.30644,-184.32534 -52.84862,-215.25261 m -11.00029,124.50309 c 28.03555,12.41597 53.05652,111.13918 55.36629,96.66241 4.25355,-26.65962 -34.65718,-187.90014 -34.5861,-218.93196 m -21.48694,123.14628 c 26.90095,14.7398 43.50207,115.22373 47.02836,100.99381 6.49381,-26.20503 -18.67107,-190.15611 -15.9775,-221.07102"
       inkscape:export-filename="/home/mm/Obrazy/catt-blue-eye.png"
       inkscape:export-xdpi="96"
       inkscape:export-ydpi="96" />
  </g>
</svg>
