<?xml version="1.0" encoding="UTF-8" standalone="no"?>
<!-- Created with Inkscape (http://www.inkscape.org/) -->

<svg
   width="1016mm"
   height="571.5mm"
   viewBox="0 0 1016 571.5"
   version="1.1"
   id="svg2937"
   inkscape:version="1.1.2 (0a00cf5339, 2022-02-04, custom)"
   sodipodi:docname="cat-kwadraty-pink.svg"
   inkscape:export-filename="/home/mm/Obrazy/cat-kwadraty.png"
   inkscape:export-xdpi="96"
   inkscape:export-ydpi="96"
   xmlns:inkscape="http://www.inkscape.org/namespaces/inkscape"
   xmlns:sodipodi="http://sodipodi.sourceforge.net/DTD/sodipodi-0.dtd"
   xmlns="http://www.w3.org/2000/svg"
   xmlns:svg="http://www.w3.org/2000/svg">
  <sodipodi:namedview
     id="namedview2939"
     pagecolor="#ffffff"
     bordercolor="#666666"
     borderopacity="1.0"
     inkscape:pageshadow="2"
     inkscape:pageopacity="0.0"
     inkscape:pagecheckerboard="0"
     inkscape:document-units="mm"
     showgrid="false"
     units="mm"
     showborder="false"
     inkscape:zoom="0.20567155"
     inkscape:cx="3374.312"
     inkscape:cy="1030.7697"
     inkscape:window-width="1896"
     inkscape:window-height="1020"
     inkscape:window-x="9"
     inkscape:window-y="45"
     inkscape:window-maximized="1"
     inkscape:current-layer="layer1" />
  <defs
     id="defs2934">
    <rect
       x="881.23215"
       y="575.20525"
       width="1433.6753"
       height="664.38148"
       id="rect9435" />
    <clipPath
       clipPathUnits="userSpaceOnUse"
       id="clipPath17032">
      <g
         id="g17040"
         transform="translate(-953.64902,58.894478)"
         style="stroke-width:0.999999">
        <path
           d="m 1225.221,146.93356 c -21.4777,0.0456 -42.3995,6.83103 -59.8158,19.39965 l 23.3015,23.3015 c 10.9938,-6.72509 23.6267,-10.29414 36.5143,-10.31606 38.7721,-8e-5 70.2031,31.43092 70.203,70.203 -0.031,12.883 -3.6065,25.50905 -10.3349,36.49549 l 23.3457,23.34566 c 12.5646,-17.42634 19.3414,-38.35751 19.3743,-59.84115 0,-56.65783 -45.9303,-102.58809 -102.5881,-102.58809 z"
           fill="#abc2ab"
           id="path17034"
           style="stroke-width:0.0718106" />
        <path
           d="m 1285.0368,332.71009 -23.3015,-23.30149 c -10.9938,6.72508 -23.6267,10.29415 -36.5143,10.31605 -38.7721,8e-5 -70.2031,-31.43092 -70.203,-70.203 0.031,-12.88299 3.6065,-25.50905 10.3349,-36.49548 l -23.3457,-23.34566 c -12.5646,17.42633 -19.3414,38.3575 -19.3743,59.84114 0,56.65783 45.9303,102.5881 102.5881,102.5881 21.4778,-0.0456 42.3995,-6.83102 59.8158,-19.39966 z"
           fill="#478061"
           id="path17036"
           style="stroke-width:0.0718106" />
        <circle
           fill="#abc2ab"
           cx="1225.2046"
           cy="249.52165"
           r="32.660702"
           id="circle17038"
           style="stroke-width:0.0718106" />
      </g>
    </clipPath>
    <rect
       x="881.23215"
       y="575.20525"
       width="1433.6753"
       height="664.38148"
       id="rect14923" />
    <rect
       x="881.23215"
       y="575.20525"
       width="1433.6753"
       height="664.38148"
       id="rect14965" />
    <rect
       x="881.23215"
       y="575.20525"
       width="1433.6753"
       height="664.38148"
       id="rect14989" />
    <rect
       x="881.23215"
       y="575.20525"
       width="1433.6753"
       height="664.38148"
       id="rect15013" />
    <rect
       x="881.23215"
       y="575.20525"
       width="1433.6753"
       height="664.38148"
       id="rect15037" />
  </defs>
  <g
     inkscape:label="Layer 1"
     inkscape:groupmode="layer"
     id="layer1">
    <rect
       style="fill:#f5c2e7;stroke:#f5c2e7;stroke-width:0.529167;fill-opacity:1"
       id="rect4741"
       width="1015.4708"
       height="570.97083"
       x="0.2645835"
       y="0.2645835" />
    <rect
       style="fill:#1a1826;stroke:#1a1826;stroke-width:0.529167"
       id="rect2649"
       width="139.47083"
       height="139.47083"
       x="-176.73541"
       y="399.26459"
       transform="scale(-1,1)" />
    <rect
       style="fill:#302d41;stroke:#302d41;stroke-width:0.529167"
       id="rect2753"
       width="34.470833"
       height="34.470833"
       x="-176.73541"
       y="359.26459"
       transform="scale(-1,1)" />
    <rect
       style="fill:#6e6c7e;stroke:#6e6c7e;stroke-width:0.529167"
       id="rect2871"
       width="34.470833"
       height="34.470833"
       x="-216.73541"
       y="359.26459"
       transform="scale(-1,1)" />
    <rect
       style="fill:#575268;stroke:#302d41;stroke-width:0.529167"
       id="rect3011"
       width="34.470833"
       height="34.470833"
       x="-216.73541"
       y="399.26459"
       transform="scale(-1,1)" />
    <rect
       style="fill:#1a1826;stroke:#1a1826;stroke-width:0.529167"
       id="rect3049"
       width="34.470833"
       height="34.470833"
       x="-256.73541"
       y="359.26459"
       transform="scale(-1,1)" />
    <rect
       style="fill:#1a1826;stroke:#1a1826;stroke-width:0.529167"
       id="rect3105"
       width="34.470833"
       height="34.470833"
       x="-216.73541"
       y="319.26459"
       transform="scale(-1,1)" />
    <rect
       style="fill:#575268;stroke:#302d41;stroke-width:0.529167"
       id="rect3251"
       width="15.970833"
       height="15.970833"
       x="-136.73541"
       y="359.26459"
       transform="scale(-1,1)" />
    <rect
       style="fill:#6e6c7e;stroke:#6e6c7e;stroke-width:0.529167"
       id="rect3487"
       width="15.970833"
       height="15.970833"
       x="-136.73541"
       y="377.76459"
       transform="scale(-1,1)" />
    <rect
       style="fill:#302d41;stroke:#302d41;stroke-width:0.529167"
       id="rect3489"
       width="15.970833"
       height="15.970833"
       x="-118.23541"
       y="377.76459"
       transform="scale(-1,1)" />
    <rect
       style="fill:#302d41;stroke:#302d41;stroke-width:0.529167"
       id="rect3585"
       width="73.470833"
       height="73.470833"
       x="-295.73541"
       y="280.26459"
       transform="scale(-1,1)" />
    <rect
       style="fill:#575268;stroke:#302d41;stroke-width:0.529167"
       id="rect3667"
       width="15.970833"
       height="15.970833"
       x="-176.73541"
       y="337.76459"
       transform="scale(-1,1)" />
    <rect
       style="fill:#302d41;stroke:#302d41;stroke-width:0.529167"
       id="rect3669"
       width="15.970833"
       height="15.970833"
       x="-158.23541"
       y="337.76459"
       transform="scale(-1,1)" />
    <rect
       style="fill:#302d41;stroke:#302d41;stroke-width:0.529167"
       id="rect3707"
       width="15.970833"
       height="15.970833"
       x="-295.73541"
       y="359.26459"
       transform="scale(-1,1)" />
    <rect
       style="fill:#6e6c7e;stroke:#6e6c7e;stroke-width:0.529167"
       id="rect3709"
       width="15.970833"
       height="15.970833"
       x="-295.73541"
       y="377.76459"
       transform="scale(-1,1)" />
    <rect
       style="fill:#302d41;stroke:#302d41;stroke-width:0.529167"
       id="rect3707-8"
       width="15.970833"
       height="15.970833"
       x="-315.73541"
       y="319.26459"
       transform="scale(-1,1)" />
    <rect
       style="fill:#6e6c7e;stroke:#6e6c7e;stroke-width:0.529167"
       id="rect3709-4"
       width="15.970833"
       height="15.970833"
       x="-315.73541"
       y="337.76459"
       transform="scale(-1,1)" />
    <rect
       style="fill:#302d41;stroke:#302d41;stroke-width:0.529167"
       id="rect3711"
       width="15.970833"
       height="15.970833"
       x="-277.23541"
       y="377.76459"
       transform="scale(-1,1)" />
    <rect
       style="fill:#575268;stroke:#302d41;stroke-width:0.529167"
       id="rect3713"
       width="15.970833"
       height="15.970833"
       x="-277.23541"
       y="359.26459"
       transform="scale(-1,1)" />
    <rect
       style="fill:#1a1826;stroke:#1a1826;stroke-width:0.529167"
       id="rect3787"
       width="15.970833"
       height="15.970833"
       x="-256.73541"
       y="241.26459"
       transform="scale(-1,1)" />
    <rect
       style="fill:#6e6c7e;stroke:#6e6c7e;stroke-width:0.529167"
       id="rect3789"
       width="15.970833"
       height="15.970833"
       x="-256.73541"
       y="259.76459"
       transform="scale(-1,1)" />
    <rect
       style="fill:#575268;stroke:#302d41;stroke-width:0.529167"
       id="rect3791"
       width="15.970833"
       height="15.970833"
       x="-238.23541"
       y="259.76459"
       transform="scale(-1,1)" />
    <rect
       style="fill:#302d41;stroke:#302d41;stroke-width:0.529167"
       id="rect3793"
       width="15.970833"
       height="15.970833"
       x="-238.23541"
       y="241.26459"
       transform="scale(-1,1)" />
    <rect
       style="fill:#6e6c7e;stroke:#6e6c7e;stroke-width:0.529167"
       id="rect3930"
       width="15.970833"
       height="15.970833"
       x="-315.73541"
       y="300.76459"
       transform="scale(-1,1)" />
    <rect
       style="fill:#1a1826;stroke:#1a1826;stroke-width:0.529167"
       id="rect3932"
       width="15.970833"
       height="15.970833"
       x="-334.73541"
       y="319.26459"
       transform="scale(-1,1)" />
    <rect
       style="fill:#302d41;stroke:#302d41;stroke-width:0.529167"
       id="rect3934"
       width="15.970833"
       height="15.970833"
       x="-334.73541"
       y="300.76459"
       transform="scale(-1,1)" />
    <rect
       style="fill:#302d41;stroke:#302d41;stroke-width:0.529167"
       id="rect4008"
       width="15.970833"
       height="15.970833"
       x="-353.73541"
       y="319.26459"
       transform="scale(-1,1)" />
    <rect
       style="fill:#302d41;stroke:#302d41;stroke-width:0.529167"
       id="rect4010"
       width="15.970833"
       height="15.970833"
       x="-353.73541"
       y="337.76459"
       transform="scale(-1,1)" />
    <rect
       style="fill:#6e6c7e;stroke:#6e6c7e;stroke-width:0.529167"
       id="rect4012"
       width="15.970833"
       height="15.970833"
       x="-372.73541"
       y="337.76459"
       transform="scale(-1,1)" />
    <rect
       style="fill:#302d41;stroke:#302d41;stroke-width:0.529167"
       id="rect4014"
       width="15.970833"
       height="15.970833"
       x="-391.73541"
       y="337.76459"
       transform="scale(-1,1)" />
    <rect
       style="fill:#575268;stroke:#302d41;stroke-width:0.529167"
       id="rect4016"
       width="15.970833"
       height="15.970833"
       x="-410.73541"
       y="337.76459"
       transform="scale(-1,1)" />
    <rect
       style="fill:#302d41;stroke:#302d41;stroke-width:0.529167"
       id="rect4198"
       width="15.970833"
       height="15.970833"
       x="-410.73541"
       y="319.26459"
       transform="scale(-1,1)" />
    <rect
       style="fill:#1a1826;stroke:#1a1826;stroke-width:0.529167"
       id="rect4236"
       width="15.970833"
       height="15.970833"
       x="-410.73541"
       y="300.76459"
       transform="scale(-1,1)" />
    <rect
       style="fill:#6e6c7e;stroke:#6e6c7e;stroke-width:0.529167"
       id="rect4274"
       width="15.970833"
       height="15.970833"
       x="-429.23541"
       y="319.26459"
       transform="scale(-1,1)" />
    <rect
       style="fill:#302d41;stroke:#302d41;stroke-width:0.529167"
       id="rect4312"
       width="15.970833"
       height="15.970833"
       x="-447.23541"
       y="300.76459"
       transform="scale(-1,1)" />
    <rect
       style="fill:#575268;stroke:#302d41;stroke-width:0.529167"
       id="rect4350"
       width="15.970833"
       height="15.970833"
       x="-465.23541"
       y="282.76459"
       transform="scale(-1,1)" />
  </g>
</svg>
