<?xml version="1.0" encoding="UTF-8" standalone="no"?>
<!-- Created with Inkscape (http://www.inkscape.org/) -->

<svg
   width="1016mm"
   height="571.5mm"
   viewBox="0 0 1016 571.5"
   version="1.1"
   id="svg2937"
   inkscape:version="1.1.2 (0a00cf5339, 2022-02-04, custom)"
   sodipodi:docname="cat-oses.svg"
   inkscape:export-filename="/home/mm/Obrazy/cat-oses.png"
   inkscape:export-xdpi="96"
   inkscape:export-ydpi="96"
   xmlns:inkscape="http://www.inkscape.org/namespaces/inkscape"
   xmlns:sodipodi="http://sodipodi.sourceforge.net/DTD/sodipodi-0.dtd"
   xmlns="http://www.w3.org/2000/svg"
   xmlns:svg="http://www.w3.org/2000/svg">
  <sodipodi:namedview
     id="namedview2939"
     pagecolor="#ffffff"
     bordercolor="#666666"
     borderopacity="1.0"
     inkscape:pageshadow="2"
     inkscape:pageopacity="0.0"
     inkscape:pagecheckerboard="0"
     inkscape:document-units="mm"
     showgrid="false"
     units="mm"
     showborder="false"
     inkscape:zoom="0.2908635"
     inkscape:cx="2461.6358"
     inkscape:cy="1223.9418"
     inkscape:window-width="1896"
     inkscape:window-height="1020"
     inkscape:window-x="9"
     inkscape:window-y="45"
     inkscape:window-maximized="1"
     inkscape:current-layer="layer1" />
  <defs
     id="defs2934">
    <rect
       x="881.23215"
       y="575.20525"
       width="1433.6753"
       height="664.38148"
       id="rect9435" />
    <clipPath
       clipPathUnits="userSpaceOnUse"
       id="clipPath17032">
      <g
         id="g17040"
         transform="translate(-953.64902,58.894478)"
         style="stroke-width:0.999999">
        <path
           d="m 1225.221,146.93356 c -21.4777,0.0456 -42.3995,6.83103 -59.8158,19.39965 l 23.3015,23.3015 c 10.9938,-6.72509 23.6267,-10.29414 36.5143,-10.31606 38.7721,-8e-5 70.2031,31.43092 70.203,70.203 -0.031,12.883 -3.6065,25.50905 -10.3349,36.49549 l 23.3457,23.34566 c 12.5646,-17.42634 19.3414,-38.35751 19.3743,-59.84115 0,-56.65783 -45.9303,-102.58809 -102.5881,-102.58809 z"
           fill="#abc2ab"
           id="path17034"
           style="stroke-width:0.0718106" />
        <path
           d="m 1285.0368,332.71009 -23.3015,-23.30149 c -10.9938,6.72508 -23.6267,10.29415 -36.5143,10.31605 -38.7721,8e-5 -70.2031,-31.43092 -70.203,-70.203 0.031,-12.88299 3.6065,-25.50905 10.3349,-36.49548 l -23.3457,-23.34566 c -12.5646,17.42633 -19.3414,38.3575 -19.3743,59.84114 0,56.65783 45.9303,102.5881 102.5881,102.5881 21.4778,-0.0456 42.3995,-6.83102 59.8158,-19.39966 z"
           fill="#478061"
           id="path17036"
           style="stroke-width:0.0718106" />
        <circle
           fill="#abc2ab"
           cx="1225.2046"
           cy="249.52165"
           r="32.660702"
           id="circle17038"
           style="stroke-width:0.0718106" />
      </g>
    </clipPath>
    <rect
       x="881.23215"
       y="575.20525"
       width="1433.6753"
       height="664.38148"
       id="rect14923" />
    <rect
       x="881.23215"
       y="575.20525"
       width="1433.6753"
       height="664.38148"
       id="rect14965" />
    <rect
       x="881.23215"
       y="575.20525"
       width="1433.6753"
       height="664.38148"
       id="rect14989" />
    <rect
       x="881.23215"
       y="575.20525"
       width="1433.6753"
       height="664.38148"
       id="rect15013" />
    <rect
       x="881.23215"
       y="575.20525"
       width="1433.6753"
       height="664.38148"
       id="rect15037" />
  </defs>
  <g
     inkscape:label="Layer 1"
     inkscape:groupmode="layer"
     id="layer1">
    <rect
       style="fill:#1e1e2e;stroke:#1e1e2e;stroke-width:0.529167"
       id="rect4741"
       width="1015.4708"
       height="570.97083"
       x="0.2645835"
       y="0.2645835" />
    <g
       id="g11556"
       transform="translate(41.539847)">
      <g
         id="g11326"
         transform="matrix(1.2028877,0,0,1.2028877,-149.32776,-29.284544)"
         style="stroke-width:0.831333">
        <path
           fill="#51a2da"
           d="m 348.51563,241.11523 c -11.69676,0 -21.16714,9.29658 -21.18783,20.77401 h -0.004 v 16.08123 h 0.004 c 0.005,2.60296 2.15809,4.7114 4.81278,4.7114 h 16.37712 c 11.69883,-0.007 21.16714,-9.30279 21.16714,-20.77401 2e-5,-11.47743 -9.48073,-20.774 -21.18783,-20.774 z"
           id="path2-6"
           style="fill:#96cdfb;stroke-width:0.831333" />
        <path
           fill="#ffffff"
           d="m 352.82168,249.66322 c -3.30439,0 -6.22333,2.43938 -6.62743,5.64032 -0.0271,0.26795 -0.035,0.46109 -0.0365,0.70401 l 0.004,13.08712 c 0,2.51047 -1.91604,4.21905 -4.31002,4.21905 -2.39728,0 -4.32861,-1.87878 -4.32861,-4.22309 0.0393,-2.57357 2.13956,-4.2058 4.5894,-4.2769 h 0.0131 l 2.48706,-0.0224 v -3.45542 l -2.48706,0.0184 c -4.45896,-0.0393 -7.99826,3.38503 -8.12754,7.73845 0,4.23343 3.54652,7.68466 7.85237,7.68466 4.06169,0 7.44187,-3.11192 7.811,-7.00601 0.0532,-1.32548 0.0273,-3.07473 0.0273,-3.07473 0.007,-0.72026 -0.0114,-0.46162 -0.004,-1.8918 l 3.08508,-0.0225 c 2.38712,0.0166 2.3603,-3.51007 -0.0275,-3.46156 l -3.05825,0.0223 c 0,-1.77531 0.0285,-3.53965 0,-5.31764 0.002,-1.53778 1.4872,-2.89668 3.13484,-2.89668 1.64806,0 3.39127,0.80686 3.39127,2.89668 0,0.29857 -0.006,0.47237 -0.0229,0.58298 -0.18394,0.96918 0.49111,1.89545 1.48574,2.03528 0.99463,0.13821 1.90797,-0.56631 2.00652,-1.54666 0.0571,-0.38755 0.0549,-0.72946 0.0549,-1.07128 0,-3.68511 -3.35821,-6.35645 -6.91504,-6.35645 z"
           id="path4-1"
           style="stroke-width:0.831333" />
      </g>
      <path
         fill="#d70751"
         d="m 419.90833,282.15065 c 0.0502,1.34916 -0.39368,2.00478 -0.79521,3.16407 l -0.72204,0.35907 c -0.59027,1.14704 0.0587,0.7282 -0.36411,1.64013 -0.92252,0.81921 -2.79553,2.56265 -3.39527,2.72237 -0.43838,-0.008 0.29653,-0.51711 0.39258,-0.71536 -1.23359,0.84658 -0.99011,1.27098 -2.87705,1.78644 l -0.0547,-0.12347 c -4.65174,2.18905 -11.11394,-2.14829 -11.02905,-8.06543 -0.0492,0.37525 -0.1412,0.28143 -0.24404,0.43221 -0.24012,-3.04401 1.40615,-6.10143 4.18267,-7.35177 2.71566,-1.34359 5.89928,-0.79298 7.84319,1.02139 -1.06773,-1.39945 -3.19481,-2.8832 -5.71389,-2.74583 -2.46883,0.0401 -4.77905,1.60883 -5.5497,3.31263 -1.26431,0.79577 -1.41172,3.06914 -1.96234,3.48575 -0.74215,5.4503 1.39441,7.80408 5.00914,10.57447 0.56738,0.38309 0.15977,0.44172 0.23568,0.73322 -1.20065,-0.56177 -2.29966,-1.41059 -3.2043,-2.44984 0.48025,0.70194 0.99791,1.38436 1.66749,1.92045 -1.13307,-0.38252 -2.64587,-2.74358 -3.08647,-2.83962 1.95173,3.49466 7.91746,6.12881 11.043,4.8215 -1.44632,0.0536 -3.28302,0.0296 -4.90693,-0.57072 -0.68409,-0.35125 -1.61052,-1.07776 -1.44469,-1.21348 4.26421,1.59212 8.66801,1.2051 12.35701,-1.7518 0.93929,-0.73154 1.96458,-1.97518 2.26111,-1.99193 -0.4462,0.67124 0.0764,0.32278 -0.26636,0.91528 0.93369,-1.50834 -0.40711,-0.61429 0.96606,-2.60453 l 0.50707,0.69804 c -0.18997,-1.25313 1.55524,-2.77319 1.37767,-4.7534 0.40038,-0.60534 0.44616,0.65225 0.0217,2.04499 0.58915,-1.54519 0.15576,-1.79369 0.30659,-3.06914 0.16252,0.42886 0.3786,0.88398 0.48862,1.33688 -0.38421,-1.49381 0.39258,-2.51463 0.58579,-3.38299 -0.19101,-0.0838 -0.59249,0.66006 -0.68518,-1.10346 0.0147,-0.76617 0.21387,-0.40151 0.29038,-0.59027 -0.14964,-0.0866 -0.54449,-0.67403 -0.78405,-1.80039 0.17265,-0.26526 0.46462,0.68633 0.7014,0.72485 -0.15239,-0.89518 -0.41437,-1.57813 -0.42553,-2.26556 -0.69244,-1.44635 -0.24516,0.19312 -0.80581,-0.62097 -0.73715,-2.2974 0.61091,-0.5333 0.70252,-1.57646 1.11573,1.61666 1.75179,4.12403 2.04496,5.16214 -0.22337,-1.26597 -0.58355,-2.49283 -1.02418,-3.6795 0.3401,0.14353 -0.54669,-2.60399 0.44173,-0.7846 -1.05487,-3.87833 -4.51101,-7.50255 -7.6913,-9.20243 0.38813,0.35573 0.87898,0.80248 0.70363,0.87283 -1.58259,-0.94096 -1.30449,-1.01523 -1.53122,-1.41284 -1.28718,-0.52436 -1.37319,0.043 -2.2248,10e-4 -2.42918,-1.28886 -2.89715,-1.15204 -5.13255,-1.95842 l 0.10174,0.47578 c -1.60885,-0.53611 -1.87467,0.20222 -3.61307,0.001 -0.10547,-0.0821 0.55733,-0.29933 1.10347,-0.37806 -1.55581,0.20558 -1.4832,-0.30716 -3.00549,0.0563 0.37471,-0.26304 0.77232,-0.43782 1.17216,-0.66118 -1.26821,0.077 -3.02894,0.73824 -2.48559,0.13634 -2.069,0.92366 -5.74406,2.21977 -7.80633,4.15363 l -0.0648,-0.43337 c -0.94488,1.1342 -4.12068,3.38747 -4.37367,4.85783 l -0.25296,0.0587 c -0.49085,0.83261 -0.80973,1.77582 -1.1995,2.63189 -0.64276,1.0962 -0.94265,0.42217 -0.85106,0.59416 -1.26485,2.56434 -1.89422,4.71878 -2.43644,6.48677 0.38644,0.57799 0.008,3.48016 0.15534,5.80269 -0.63437,11.47245 8.05149,22.61038 17.54598,25.18142 1.39159,0.49866 3.46059,0.48081 5.22077,0.52994 -2.07625,-0.59418 -2.34429,-0.3144 -4.36805,-1.0197 -1.45919,-0.68799 -1.7786,-1.47259 -2.81282,-2.36998 l 0.40932,0.72316 c -2.0271,-0.71758 -1.17885,-0.8879 -2.82845,-1.41003 l 0.43724,-0.57016 c -0.65728,-0.0503 -1.74064,-1.10681 -2.03659,-1.69375 l -0.71927,0.0285 c -0.86334,-1.06438 -1.32406,-1.83334 -1.28999,-2.4292 l -0.2323,0.41436 c -0.26303,-0.45177 -3.17804,-3.99727 -1.66582,-3.1719 -0.28088,-0.25576 -0.65447,-0.41714 -1.05933,-1.15372 l 0.30769,-0.35125 c -0.72651,-0.93651 -1.33913,-2.13655 -1.29221,-2.53641 0.38811,0.52382 0.65728,0.6221 0.92421,0.71202 -1.83781,-4.55906 -1.94112,-0.25075 -3.33217,-4.64059 l 0.29373,-0.0235 c -0.22506,-0.34121 -0.36299,-0.7092 -0.54391,-1.07164 l 0.12832,-1.276 c -1.32236,-1.5279 -0.36968,-6.50296 -0.17813,-9.23092 0.13128,-1.10904 1.10402,-2.29012 1.84283,-4.14244 l -0.45009,-0.077 c 0.86109,-1.50105 4.91532,-6.0305 6.79389,-5.7982 0.90968,-1.14254 -0.18089,-0.005 -0.35907,-0.2915 1.99862,-2.06788 2.62686,-1.46085 3.97549,-1.83335 1.45358,-0.86277 -1.2481,0.33731 -0.55899,-0.32891 2.51461,-0.64164 1.78139,-1.45974 5.06105,-1.78532 0.34623,0.1965 -0.80245,0.30379 -1.09061,0.55901 2.09412,-1.02529 6.62805,-0.79129 9.57434,0.56849 3.41593,1.59766 7.25629,6.3181 7.40817,10.75932 l 0.17266,0.0464 c -0.0871,1.76576 0.27026,3.80794 -0.35014,5.68318 l 0.41937,-0.88849"
         id="path12"
         style="fill:#f28fad;stroke-width:0.264577" />
      <path
         id="path2-0"
         style="fill:#96cdfb;stroke-width:7.54682"
         d="m 462.51391,260.74996 c 8.6e-4,0.002 0.002,0.005 0.002,0.007 0,-6.6e-4 6.6e-4,-10e-4 6.6e-4,-0.002 z m 0.002,0.007 c -2.22681,5.44965 -3.56439,9.02182 -6.04099,14.31786 1.51767,1.61082 3.38459,3.48795 6.41041,5.6042 -3.25534,-1.34599 -5.47554,-2.69038 -7.13907,-4.08737 -3.17074,6.62461 -8.14141,16.0424 -18.21946,34.15839 7.92762,-4.57584 14.06308,-7.39606 19.78754,-8.47548 -0.24384,-1.05462 -0.38209,-2.19303 -0.37376,-3.39384 v -0.2519 c 0.12755,-5.08207 2.76746,-8.98082 5.89522,-8.71512 3.12843,0.26397 5.56214,4.59335 5.44193,9.67458 -8.6e-4,0.95104 -0.14014,1.8675 -0.32214,2.72502 5.66496,1.10548 11.73982,3.91559 19.55567,8.43251 -1.54333,-2.83698 -2.91413,-5.39879 -4.23362,-7.83208 -2.06497,-1.6029 -4.22531,-3.69407 -8.62165,-5.95612 3.0259,0.78771 5.18462,1.69633 6.87256,2.70791 -13.35682,-24.85482 -14.43046,-28.1681 -19.01215,-38.90855 z m 25.32778,44.16339 c -8.8e-4,0.001 -10e-4,0.002 -0.002,0.005 -0.005,0.009 -0.0146,0.0175 -0.013,0.0278 0.001,0.007 0.0104,-0.0115 0.0151,-0.0197 v -0.002 c 0,-0.003 10e-6,-0.007 0,-0.0104 z m -0.0273,0.2744 c -8.6e-4,0.009 -0.002,0.0181 -0.003,0.0273 0.003,-0.007 0.006,-0.0147 0.008,-0.022 -0.001,-10e-4 -0.003,-0.003 -0.005,-0.006 z m 0.0426,0.1264 c -0.001,0.006 -0.002,0.0129 -0.002,0.0206 10e-4,-0.003 0.002,-0.007 0.003,-0.0104 6.5e-4,-0.002 0.001,-0.003 0.002,-0.006 -8.7e-4,-0.001 -0.002,-0.003 -0.002,-0.005 z" />
      <g
         id="g11334"
         transform="matrix(1.062003,0,0,1.062003,-22.373392,5.1937755)"
         style="stroke-width:0.941617">
        <g
           id="g4"
           transform="matrix(0.1046241,0,0,0.1046241,552.996,237.39272)"
           style="fill:#f8bd96;stroke-width:2.38125">
          <path
             d="M 256,31 C 131.7,31 31,131.7 31,256 31,380.3 131.7,481 256,481 380.3,481 481,380.3 481,256 481,131.7 380.3,31 256,31 Z m 47.8,84.4 c 8,-13.8 25.7,-18.6 39.5,-10.6 13.9,8 18.6,25.7 10.6,39.6 -8,13.8 -25.7,18.6 -39.5,10.6 -13.9,-8.1 -18.6,-25.8 -10.6,-39.6 z M 110.3,284.9 c -16,0 -28.9,-13 -28.9,-28.9 0,-15.9 13,-28.9 28.9,-28.9 15.9,0 28.9,13 28.9,28.9 0,15.9 -12.9,28.9 -28.9,28.9 z m 25.5,2.9 c 20.2,-16.2 20.3,-47.1 0,-63.4 7.8,-29.8 26.4,-55.1 51.3,-71.8 l 21.5,35.9 c -46.7,32.9 -46.7,102.1 0,135 L 187,359.4 c -24.8,-16.6 -43.3,-42 -51.2,-71.6 z m 207.5,119.4 c -13.9,8 -31.5,3.3 -39.5,-10.6 -8,-13.9 -3.3,-31.6 10.6,-39.6 13.8,-8 31.5,-3.3 39.5,10.6 8,14 3.3,31.7 -10.6,39.6 z m 0.3,-63 c -24.2,-9.3 -50.9,6 -54.9,31.8 -4.7,1.3 -44.4,13 -87.7,-8.5 l 20.4,-36.6 c 51.7,24 112,-10.6 116.9,-67.5 l 41.8,0.6 c -2.1,31.3 -15.7,59.4 -36.5,80.2 z m -5.4,-95.5 c -4.9,-56.2 -64.7,-91.8 -116.9,-67.5 l -20.4,-36.6 c 43.5,-21.5 83,-9.8 87.7,-8.5 4,25.7 30.7,41.1 54.9,31.8 21,20.8 34.5,48.9 36.5,80.3 z"
             id="path2-3"
             style="fill:#f8bd96;stroke-width:2.38125" />
        </g>
      </g>
      <g
         id="g11330"
         transform="matrix(1.2791826,0,0,1.2791826,-207.30765,-48.912634)"
         style="stroke-width:0.781749">
        <circle
           class="st1"
           cx="427.39297"
           cy="261.62225"
           r="19.54373"
           id="circle6"
           style="fill:#abe9b3;stroke-width:0.206838" />
        <path
           id="_x3C_Path_x3E_"
           class="st2"
           d="m 414.72575,249.85983 v 16.28644 c 0.0181,3.99922 3.23919,7.22032 7.23842,7.23841 h 10.85763 c 3.99922,-0.0181 7.22032,-3.23919 7.23842,-7.23841 v -9.04803 c -0.0181,-2.98584 -2.44297,-5.41071 -5.42882,-5.42881 -1.33911,0 -2.62393,0.50669 -3.61921,1.42959 -0.99528,-0.90481 -2.2801,-1.41149 -3.6192,-1.42959 -2.98586,0.0181 -5.41073,2.44297 -5.42882,5.42881 v 9.04803 h 3.61921 v -9.04803 c 0,-0.99528 0.81432,-1.8096 1.80961,-1.8096 0.99527,0 1.8096,0.81432 1.8096,1.8096 v 9.04803 h 3.61921 v -9.04803 c 0,-0.99528 0.81432,-1.8096 1.8096,-1.8096 0.99529,0 1.8096,0.81432 1.8096,1.8096 v 9.04803 c 0.0181,1.99057 -1.59245,3.60111 -3.56492,3.61921 -0.0181,0 -0.0362,0 -0.0543,0 h -10.85763 c -1.99057,0.0181 -3.60111,-1.59246 -3.61921,-3.56493 0,-0.0181 0,-0.0362 0,-0.0543 v -16.28644 z"
           style="fill:#f8f8f8;stroke-width:0.206838" />
      </g>
      <g
         id="g11347"
         transform="matrix(0.92361037,0,0,0.92361037,-260.04283,3.412638)"
         style="stroke-width:1.08271">
        <g
           id="g11218"
           transform="matrix(0.40120688,0,0,0.40120688,509.5336,183.04436)"
           style="stroke-width:2.69863">
          <path
             d="m 850.93429,238.22315 c -14.11884,0.03 -27.8722,4.49233 -39.32114,12.75792 l 15.31771,15.32391 c 7.22701,-4.42266 15.53151,-6.7698 24.00343,-6.78421 25.48762,-6e-5 46.14943,20.67011 46.14938,46.16805 -0.0204,8.47233 -2.37082,16.77568 -6.79384,24.00076 l 15.34675,15.35296 c 8.25962,-11.4602 12.71446,-25.2253 12.7361,-39.35372 0,-37.26026 -30.19321,-67.46567 -67.43839,-67.46567 z"
             fill="#abc2ab"
             id="svg_14-6"
             style="fill:#b5e8e0;stroke-width:1.72972" />
          <path
             d="M 890.25542,360.39657 874.9377,345.07266 c -7.227,4.42266 -15.53149,6.76981 -24.00341,6.78421 -25.48763,5e-5 -46.14944,-20.67012 -46.14938,-46.16805 0.0204,-8.47233 2.3708,-16.77569 6.79383,-24.00076 L 796.23199,266.3351 c -8.25963,11.46019 -12.71445,25.2253 -12.73609,39.35372 0,37.26025 30.19319,67.46567 67.43839,67.46567 14.11883,-0.03 27.87219,-4.49233 39.32113,-12.75792 z"
             fill="#478061"
             id="svg_15-3"
             style="fill:#abe9b3;stroke-width:1.72972" />
          <ellipse
             cx="850.92352"
             cy="305.68881"
             fill="#abc2ab"
             id="svg_3-2"
             rx="21.470177"
             ry="21.478863"
             style="fill:#b5e8e0;stroke-width:1.72972" />
        </g>
      </g>
      <g
         id="g11353"
         transform="matrix(0.498278,0,0,0.498278,315.32882,80.814006)"
         style="stroke-width:2.00691">
        <path
           id="use2"
           d="m 668.56869,412.53804 28.17553,48.80163 -12.94747,0.12159 -7.52246,-13.10937 -7.57643,13.04188 -6.43326,-0.004 -3.29662,-5.69292 10.7921,-18.55747 -7.66127,-13.33302 z"
           style="fill:#5277c3;fill-rule:evenodd;stroke-width:0.566395" />
        <path
           d="m 678.73808,392.43445 -28.17745,48.80156 -6.5817,-11.15258 7.59576,-13.07084 -15.08161,-0.041 -3.21369,-5.57345 3.2831,-5.69873 21.46664,0.0683 7.71523,-13.30214 z m 2.1592,39.01197 h 56.351 l -6.36571,11.27792 -15.11439,-0.041 7.50709,13.08047 -3.2195,5.59074 -6.57787,0.007 -10.67448,-18.62305 -15.37649,-0.0342 z m 32.80044,-21.38372 -28.17363,-48.80354 12.94748,-0.12159 7.52246,13.10944 7.57643,-13.04195 6.43326,0.004 3.27729,5.69292 -10.7921,18.55747 7.66133,13.33302 z"
           fill="#7ebae4"
           id="path4-0"
           style="fill:#89dceb;fill-rule:evenodd;stroke-width:0.566395" />
        <path
           id="use6"
           d="m 668.56869,412.53804 28.17553,48.80163 -12.94747,0.12159 -7.52246,-13.10937 -7.57643,13.04188 -6.43326,-0.004 -3.29662,-5.69292 10.7921,-18.55747 -7.66127,-13.33302 z"
           style="fill:#96cdfb;fill-rule:evenodd;stroke-width:0.566395" />
        <path
           d="m 701.29392,391.03096 -56.35107,-0.004 6.36768,-11.27409 15.1144,0.041 -7.50511,-13.08047 3.2195,-5.59073 6.57781,-0.007 10.67447,18.62305 15.37656,0.0341 z m 2.19772,39.12379 28.17745,-48.79965 6.57979,11.15258 -7.59576,13.07084 15.08161,0.041 3.2156,5.59074 -3.28309,5.69873 -21.46665,-0.0683 -7.71523,13.30214 z"
           id="path8-6"
           style="fill:#96cdfb;fill-rule:evenodd;stroke-width:0.566395" />
      </g>
    </g>
  </g>
</svg>
