<?xml version="1.0" encoding="UTF-8" standalone="no"?>
<!-- Created with Inkscape (http://www.inkscape.org/) -->

<svg
   width="1016mm"
   height="571.5mm"
   viewBox="0 0 1016 571.5"
   version="1.1"
   id="svg2937"
   inkscape:version="1.1.2 (0a00cf5339, 2022-02-04, custom)"
   sodipodi:docname="cat-apple-3.svg"
   inkscape:export-filename="/home/mm/Obrazy/cat-apple-3.png"
   inkscape:export-xdpi="96"
   inkscape:export-ydpi="96"
   xmlns:inkscape="http://www.inkscape.org/namespaces/inkscape"
   xmlns:sodipodi="http://sodipodi.sourceforge.net/DTD/sodipodi-0.dtd"
   xmlns="http://www.w3.org/2000/svg"
   xmlns:svg="http://www.w3.org/2000/svg">
  <sodipodi:namedview
     id="namedview2939"
     pagecolor="#ffffff"
     bordercolor="#666666"
     borderopacity="1.0"
     inkscape:pageshadow="2"
     inkscape:pageopacity="0.0"
     inkscape:pagecheckerboard="0"
     inkscape:document-units="mm"
     showgrid="false"
     units="mm"
     showborder="false"
     inkscape:zoom="0.20567155"
     inkscape:cx="1480.5159"
     inkscape:cy="1157.1848"
     inkscape:window-width="1896"
     inkscape:window-height="1020"
     inkscape:window-x="9"
     inkscape:window-y="45"
     inkscape:window-maximized="1"
     inkscape:current-layer="layer1" />
  <defs
     id="defs2934">
    <rect
       x="881.23215"
       y="575.20525"
       width="1433.6753"
       height="664.38148"
       id="rect9435" />
    <clipPath
       clipPathUnits="userSpaceOnUse"
       id="clipPath17032">
      <g
         id="g17040"
         transform="translate(-953.64902,58.894478)"
         style="stroke-width:0.999999">
        <path
           d="m 1225.221,146.93356 c -21.4777,0.0456 -42.3995,6.83103 -59.8158,19.39965 l 23.3015,23.3015 c 10.9938,-6.72509 23.6267,-10.29414 36.5143,-10.31606 38.7721,-8e-5 70.2031,31.43092 70.203,70.203 -0.031,12.883 -3.6065,25.50905 -10.3349,36.49549 l 23.3457,23.34566 c 12.5646,-17.42634 19.3414,-38.35751 19.3743,-59.84115 0,-56.65783 -45.9303,-102.58809 -102.5881,-102.58809 z"
           fill="#abc2ab"
           id="path17034"
           style="stroke-width:0.0718106" />
        <path
           d="m 1285.0368,332.71009 -23.3015,-23.30149 c -10.9938,6.72508 -23.6267,10.29415 -36.5143,10.31605 -38.7721,8e-5 -70.2031,-31.43092 -70.203,-70.203 0.031,-12.88299 3.6065,-25.50905 10.3349,-36.49548 l -23.3457,-23.34566 c -12.5646,17.42633 -19.3414,38.3575 -19.3743,59.84114 0,56.65783 45.9303,102.5881 102.5881,102.5881 21.4778,-0.0456 42.3995,-6.83102 59.8158,-19.39966 z"
           fill="#478061"
           id="path17036"
           style="stroke-width:0.0718106" />
        <circle
           fill="#abc2ab"
           cx="1225.2046"
           cy="249.52165"
           r="32.660702"
           id="circle17038"
           style="stroke-width:0.0718106" />
      </g>
    </clipPath>
    <rect
       x="881.23215"
       y="575.20525"
       width="1433.6753"
       height="664.38148"
       id="rect14923" />
    <rect
       x="881.23215"
       y="575.20525"
       width="1433.6753"
       height="664.38148"
       id="rect14965" />
    <rect
       x="881.23215"
       y="575.20525"
       width="1433.6753"
       height="664.38148"
       id="rect14989" />
    <rect
       x="881.23215"
       y="575.20525"
       width="1433.6753"
       height="664.38148"
       id="rect15013" />
    <rect
       x="881.23215"
       y="575.20525"
       width="1433.6753"
       height="664.38148"
       id="rect15037" />
  </defs>
  <g
     inkscape:label="Layer 1"
     inkscape:groupmode="layer"
     id="layer1">
    <rect
       style="fill:#1e1e2e;stroke:#1e1e2e;stroke-width:0.529167"
       id="rect4741"
       width="1015.4708"
       height="570.97083"
       x="0.2645835"
       y="0.2645835" />
    <path
       d="m 561.52257,322.79787 c -2.00597,4.6342 -4.38037,8.89996 -7.13143,12.82183 -3.74994,5.34652 -6.8203,9.04734 -9.18653,11.10244 -3.66805,3.3733 -7.59812,5.10089 -11.80656,5.19914 -3.02123,0 -6.66473,-0.8597 -10.90593,-2.60366 -4.25512,-1.73579 -8.16553,-2.59548 -11.74107,-2.59548 -3.74994,0 -7.7717,0.85969 -12.07348,2.59548 -4.30834,1.74396 -7.77907,2.65279 -10.43269,2.74286 -4.03568,0.17193 -8.05826,-1.60479 -12.07348,-5.33834 -2.56273,-2.23523 -5.76819,-6.06704 -9.60819,-11.49545 -4.12001,-5.79684 -7.50724,-12.51889 -10.16085,-20.18251 -2.84193,-8.2777 -4.26658,-16.29339 -4.26658,-24.05364 0,-8.88931 1.92082,-16.55621 5.76819,-22.98105 3.0237,-5.16066 7.04628,-9.23155 12.08085,-12.22004 5.03458,-2.98848 10.47445,-4.51138 16.3327,-4.60882 3.20546,0 7.40899,0.99153 12.6327,2.94018 5.20897,1.95521 8.55362,2.94673 10.02002,2.94673 1.09633,0 4.81187,-1.15937 11.11063,-3.47074 5.9565,-2.14352 10.9837,-3.03106 15.10208,-2.68145 11.15975,0.90064 19.54388,5.29986 25.11966,13.22549 -9.98072,6.04739 -14.91787,14.51749 -14.81962,25.3833 0.0901,8.46355 3.16043,15.50656 9.19472,21.09872 2.73466,2.59547 5.78865,4.60144 9.18651,6.02609 -0.73687,2.13697 -1.5147,4.18389 -2.34165,6.14892 z M 535.92803,222.08178 c 0,6.6337 -2.42354,12.82757 -7.25424,18.56055 -5.8296,6.81538 -12.88078,10.75364 -20.52722,10.13219 -0.0974,-0.79584 -0.15393,-1.63343 -0.15393,-2.5136 0,-6.36834 2.77234,-13.18373 7.69556,-18.75623 2.45793,-2.82146 5.58397,-5.16746 9.37484,-7.03891 3.78269,-1.84353 7.36068,-2.86304 10.7258,-3.03763 0.0983,0.88682 0.13919,1.7737 0.13919,2.65355 z"
       id="path4"
       inkscape:connector-curvature="0"
       style="fill:#d9e0ee;fill-opacity:1;stroke-width:0.222864" />
  </g>
</svg>
