<?xml version="1.0" encoding="UTF-8" standalone="no"?>
<!-- Created with Inkscape (http://www.inkscape.org/) -->

<svg
   width="1016mm"
   height="571.5mm"
   viewBox="0 0 1016 571.5"
   version="1.1"
   id="svg2937"
   inkscape:version="1.1.2 (0a00cf5339, 2022-02-04, custom)"
   sodipodi:docname="cat-sports.svg"
   inkscape:export-filename="/home/mm/Obrazy/cat-kwadraty.png"
   inkscape:export-xdpi="96"
   inkscape:export-ydpi="96"
   xmlns:inkscape="http://www.inkscape.org/namespaces/inkscape"
   xmlns:sodipodi="http://sodipodi.sourceforge.net/DTD/sodipodi-0.dtd"
   xmlns="http://www.w3.org/2000/svg"
   xmlns:svg="http://www.w3.org/2000/svg"
   xmlns:i="&amp;#38;ns_ai;">
  <sodipodi:namedview
     id="namedview2939"
     pagecolor="#ffffff"
     bordercolor="#666666"
     borderopacity="1.0"
     inkscape:pageshadow="2"
     inkscape:pageopacity="0.0"
     inkscape:pagecheckerboard="0"
     inkscape:document-units="mm"
     showgrid="false"
     units="mm"
     showborder="false"
     inkscape:zoom="0.20567155"
     inkscape:cx="2173.3681"
     inkscape:cy="1045.356"
     inkscape:window-width="1896"
     inkscape:window-height="1020"
     inkscape:window-x="9"
     inkscape:window-y="45"
     inkscape:window-maximized="1"
     inkscape:current-layer="layer1" />
  <defs
     id="defs2934">
    <rect
       x="881.23215"
       y="575.20525"
       width="1433.6753"
       height="664.38148"
       id="rect9435" />
    <clipPath
       clipPathUnits="userSpaceOnUse"
       id="clipPath17032">
      <g
         id="g17040"
         transform="translate(-953.64902,58.894478)"
         style="stroke-width:0.999999">
        <path
           d="m 1225.221,146.93356 c -21.4777,0.0456 -42.3995,6.83103 -59.8158,19.39965 l 23.3015,23.3015 c 10.9938,-6.72509 23.6267,-10.29414 36.5143,-10.31606 38.7721,-8e-5 70.2031,31.43092 70.203,70.203 -0.031,12.883 -3.6065,25.50905 -10.3349,36.49549 l 23.3457,23.34566 c 12.5646,-17.42634 19.3414,-38.35751 19.3743,-59.84115 0,-56.65783 -45.9303,-102.58809 -102.5881,-102.58809 z"
           fill="#abc2ab"
           id="path17034"
           style="stroke-width:0.0718106" />
        <path
           d="m 1285.0368,332.71009 -23.3015,-23.30149 c -10.9938,6.72508 -23.6267,10.29415 -36.5143,10.31605 -38.7721,8e-5 -70.2031,-31.43092 -70.203,-70.203 0.031,-12.88299 3.6065,-25.50905 10.3349,-36.49548 l -23.3457,-23.34566 c -12.5646,17.42633 -19.3414,38.3575 -19.3743,59.84114 0,56.65783 45.9303,102.5881 102.5881,102.5881 21.4778,-0.0456 42.3995,-6.83102 59.8158,-19.39966 z"
           fill="#478061"
           id="path17036"
           style="stroke-width:0.0718106" />
        <circle
           fill="#abc2ab"
           cx="1225.2046"
           cy="249.52165"
           r="32.660702"
           id="circle17038"
           style="stroke-width:0.0718106" />
      </g>
    </clipPath>
    <rect
       x="881.23215"
       y="575.20525"
       width="1433.6753"
       height="664.38148"
       id="rect14923" />
    <rect
       x="881.23215"
       y="575.20525"
       width="1433.6753"
       height="664.38148"
       id="rect14965" />
    <rect
       x="881.23215"
       y="575.20525"
       width="1433.6753"
       height="664.38148"
       id="rect14989" />
    <rect
       x="881.23215"
       y="575.20525"
       width="1433.6753"
       height="664.38148"
       id="rect15013" />
    <rect
       x="881.23215"
       y="575.20525"
       width="1433.6753"
       height="664.38148"
       id="rect15037" />
  </defs>
  <g
     inkscape:label="Layer 1"
     inkscape:groupmode="layer"
     id="layer1">
    <rect
       style="fill:#1e1e2e;stroke:#1e1e2e;stroke-width:0.529167"
       id="rect4741"
       width="1015.4708"
       height="570.97083"
       x="0.2645835"
       y="0.2645835" />
    <g
       id="g5660"
       transform="translate(-1.8556624,-9.1971943)">
      <g
         id="g5151"
         transform="matrix(1.0019273,0,0,1.0019273,264.40064,14.779596)"
         style="fill:#96cdfb;stroke-width:0.998074">
        <path
           d="m 224.48995,262.0891 c 3.57822,0.45138 7.17947,0.83344 10.79129,0.77258 1.62349,0.002 3.34566,0.0542 4.84055,-0.67759 0.8636,-0.60908 1.6764,-1.78594 1.12131,-2.85592 -0.66516,-1.15755 -2.01533,-1.74916 -3.28136,-1.96717 -2.81993,-0.20082 -5.63034,0.21722 -8.43836,0.41645 -4.67916,0.47387 -9.35805,1.00171 -14.05916,1.18084 -2.8702,0.34051 -5.81634,0.35401 -8.60955,1.13162 0.37942,0.13679 0.77259,0.23865 1.17608,0.26855 5.48058,0.62177 10.95798,1.30149 16.4592,1.73064 z"
           id="path2"
           style="fill:#96cdfb;stroke-width:0.264074" />
        <path
           d="m 261.50859,267.9737 c -0.67759,-2.36114 -2.15238,-4.59661 -4.46431,-5.60838 -1.21603,-0.10398 -2.78474,0.32015 -3.15648,1.63539 -0.30692,2.12778 1.01441,4.02061 2.14868,5.69384 0.97896,1.4396 2.21906,2.80802 2.53841,4.57835 -1.74598,1.30042 -3.5806,2.48311 -5.49962,3.5097 -1.30943,0.58737 -2.69214,0.98848 -4.01744,1.53696 -0.88794,0.37888 -1.88515,0.64505 -2.55746,1.3806 0.56436,0.22992 1.18057,0.14155 1.77138,0.11562 2.97445,-0.21961 5.98065,-0.45985 8.84794,-1.33456 1.96955,-0.64796 3.99626,-1.56607 5.21414,-3.32581 0.46646,-0.88821 0.56462,-1.92246 0.60087,-2.91068 0.0378,-1.8714 -0.9787,-3.50388 -1.42611,-5.27103 z"
           id="path4"
           style="fill:#96cdfb;stroke-width:0.264074" />
        <path
           d="m 234.40706,274.26337 c -2.36591,0.31089 -4.15052,2.10714 -5.69357,3.77931 -1.73805,1.80499 -3.13611,3.89229 -4.65243,5.87825 -0.89959,1.3507 -1.719,2.8112 -2.02089,4.42383 -0.16325,0.94483 0.40852,1.9857 1.36975,2.21007 1.28878,0.52361 2.70801,-0.0193 3.70496,-0.88212 3.14298,-2.84507 6.21347,-5.84253 8.5643,-9.39589 0.79348,-1.15226 1.42028,-2.46353 1.56792,-3.86821 0.0225,-0.57044 -0.10928,-1.30863 -0.73951,-1.49516 -0.67469,-0.27331 -1.33721,-0.76279 -2.10053,-0.65008 z"
           id="path6"
           style="fill:#96cdfb;stroke-width:0.264074" />
        <path
           d="m 239.02721,279.96223 c -2.74822,1.37637 -4.33308,4.13279 -6.15579,6.47462 -5.39168,7.59434 -10.14863,15.6091 -15.1855,23.43759 -0.68077,1.26444 -1.49728,2.47597 -1.99813,3.8264 0.37412,-0.11112 0.76094,-0.24633 1.00833,-0.56806 1.54172,-1.81345 3.2594,-3.46657 5.07576,-5.00248 3.5478,-2.96174 6.6847,-6.36905 10.04491,-9.53479 2.79823,-2.76066 5.69965,-5.43613 8.13435,-8.53651 1.66343,-2.12011 3.3319,-4.34552 4.11533,-6.9604 0.35824,-1.1049 0.20214,-2.43522 -0.65617,-3.27051 -1.33932,-0.8599 -3.04879,-0.59161 -4.38309,0.13414 z"
           id="path8"
           style="fill:#96cdfb;stroke-width:0.264074" />
        <path
           d="m 207.06026,295.50571 c -3.35545,0 -6.07563,2.71992 -6.07563,6.07563 0,3.35544 2.72018,6.07562 6.07563,6.07562 3.35544,0 6.07562,-2.72018 6.07562,-6.07562 0,-3.35545 -2.72018,-6.07563 -6.07562,-6.07563 z m 0,10.56375 c -2.47492,0 -4.48813,-2.01321 -4.48813,-4.48812 0,-2.47492 2.01321,-4.48813 4.48813,-4.48813 2.47491,0 4.48812,2.01295 4.48812,4.48813 0,2.47491 -2.01321,4.48812 -4.48812,4.48812 z"
           id="path10"
           style="fill:#96cdfb;stroke-width:0.264074" />
        <circle
           cx="251.16127"
           cy="254.2823"
           r="5.8208332"
           id="circle12"
           style="fill:#96cdfb;stroke-width:0.264074" />
      </g>
      <g
         id="Layer_1"
         i:layer="yes"
         i:dimmedPercent="50"
         i:rgbTrio="#4F008000FFFF"
         transform="matrix(0.27306105,0,0,0.27306212,539.76991,256.05099)"
         style="fill:#f8bd96;stroke-width:0.968951">
        <g
           id="g25"
           style="fill:#f8bd96;stroke-width:0.968951">
          <g
             id="surface0"
             i:knockout="Off"
             style="fill:#f8bd96;stroke-width:0.968951">
            <path
               fill="none"
               stroke="#000000"
               stroke-width="0.0968951"
               stroke-miterlimit="10"
               d="m 138.709,30.938 c 5.609,-0.752 11.406,1.083 15.914,4.42 5.193,3.894 7.9,10.298 8.531,16.621 -0.295,8.417 -5.155,16.962 -13.223,20.111 -7.173,3.311 -15.957,1.923 -22.096,-2.922 -5.224,-4.494 -8.544,-11.351 -8.015,-18.312 0.739,-9.984 8.911,-18.711 18.889,-19.918 z"
               id="path4-0"
               style="fill:#f8bd96" />
            <path
               d="m 138.709,30.938 c 5.609,-0.752 11.406,1.083 15.914,4.42 5.193,3.894 7.9,10.298 8.531,16.621 -0.295,8.417 -5.155,16.962 -13.223,20.111 -7.173,3.311 -15.957,1.923 -22.096,-2.922 -5.224,-4.494 -8.544,-11.351 -8.015,-18.312 0.739,-9.984 8.911,-18.711 18.889,-19.918 z"
               id="path6-3"
               style="fill:#f8bd96;stroke-width:0.968951" />
            <path
               fill="none"
               stroke="#000000"
               stroke-width="0.0968951"
               stroke-miterlimit="10"
               d="m 80.708,66.875 c 7.386,-2.163 15.97,-1.732 22.092,3.353 1.917,2.876 3.946,6.594 2.431,10.088 -1.416,3.29 -4.979,4.698 -8.044,6.012 -7.894,2.683 -16.457,3.841 -23.707,8.161 -5.154,3.081 -6.941,9.597 -5.855,15.241 0.5,6.843 5.978,11.954 11.813,14.8 4.678,2.798 10.345,2.349 15.574,2.216 4.266,-0.208 8.066,-2.58 12.318,-2.738 -0.103,2.978 -2.86,4.734 -5.127,6.142 -7.209,3.908 -15.691,4.301 -23.712,3.991 -4.148,-0.199 -8.006,-1.968 -11.519,-4.065 -5.816,-3.631 -12.024,-7.484 -15.131,-13.878 -5.994,-12.084 -2.534,-27.284 6.337,-37.039 5.839,-6.605 14.366,-9.672 22.53,-12.284 z"
               id="path8-6"
               style="fill:#f8bd96" />
            <path
               d="m 80.708,66.875 c 7.386,-2.163 15.97,-1.732 22.092,3.353 1.917,2.876 3.946,6.594 2.431,10.088 -1.416,3.29 -4.979,4.698 -8.044,6.012 -7.894,2.683 -16.457,3.841 -23.707,8.161 -5.154,3.081 -6.941,9.597 -5.855,15.241 0.5,6.843 5.978,11.954 11.813,14.8 4.678,2.798 10.345,2.349 15.574,2.216 4.266,-0.208 8.066,-2.58 12.318,-2.738 -0.103,2.978 -2.86,4.734 -5.127,6.142 -7.209,3.908 -15.691,4.301 -23.712,3.991 -4.148,-0.199 -8.006,-1.968 -11.519,-4.065 -5.816,-3.631 -12.024,-7.484 -15.131,-13.878 -5.994,-12.084 -2.534,-27.284 6.337,-37.039 5.839,-6.605 14.366,-9.672 22.53,-12.284 z"
               id="path10-1"
               style="fill:#f8bd96;stroke-width:0.968951" />
            <path
               fill="none"
               stroke="#000000"
               stroke-width="0.0968951"
               stroke-miterlimit="10"
               d="m 157.501,76.707 c 1.079,-0.584 2.237,-0.912 3.475,-0.984 21.44,-0.625 42.759,2.389 63.873,5.841 15.21,2.599 30.544,4.428 45.769,6.903 0.748,1.864 -2.445,1.671 -3.57,2.198 -24.506,3.485 -49.292,4.094 -73.98,5.48 -8.992,0.102 -17.988,0.678 -26.979,0.191 -4.705,-0.327 -9.841,-1.833 -12.842,-5.695 -3.376,-4.686 -0.573,-11.488 4.254,-13.934 z"
               id="path12"
               style="fill:#f8bd96" />
            <path
               d="m 157.501,76.707 c 1.079,-0.584 2.237,-0.912 3.475,-0.984 21.44,-0.625 42.759,2.389 63.873,5.841 15.21,2.599 30.544,4.428 45.769,6.903 0.748,1.864 -2.445,1.671 -3.57,2.198 -24.506,3.485 -49.292,4.094 -73.98,5.48 -8.992,0.102 -17.988,0.678 -26.979,0.191 -4.705,-0.327 -9.841,-1.833 -12.842,-5.695 -3.376,-4.686 -0.573,-11.488 4.254,-13.934 z"
               id="path14"
               style="fill:#f8bd96;stroke-width:0.968951" />
            <g
               id="g18"
               style="fill:#f8bd96;stroke-width:0.968951">
              <path
                 i:knockout="Off"
                 d="m 99.674,90.979 c 3.651,0 7.299,0.609 10.709,1.822 4.505,1.858 8.272,5.036 12.029,8.062 -1.307,9.05 -8.023,17.218 -16.883,19.755 -3.133,1.32 -6.466,1.625 -9.815,1.625 -1.865,0 -3.734,-0.094 -5.577,-0.16 -6.755,-1.242 -12.693,-5.212 -17.796,-9.649 1.625,-4.728 3.091,-9.78 6.623,-13.492 5.494,-5.322 13.108,-7.962 20.71,-7.963 m 10e-4,5 c -10e-4,0 -10e-4,0 0,0 -6.613,0 -12.859,2.361 -17.157,6.48 -2.001,2.14 -3.208,5.098 -4.33,8.316 4.44,3.448 8.56,5.527 12.518,6.326 l 0.885,0.033 c 1.429,0.056 2.779,0.108 4.123,0.108 3.424,0 5.852,-0.38 7.874,-1.232 l 0.277,-0.117 0.289,-0.083 c 5.941,-1.702 10.877,-6.851 12.719,-12.991 -2.721,-2.169 -5.377,-4.131 -8.282,-5.35 -2.826,-0.988 -5.825,-1.49 -8.916,-1.49 z"
                 id="path16"
                 style="fill:#f8bd96;stroke-width:0.968951" />
            </g>
            <path
               fill="none"
               stroke="#000000"
               stroke-width="0.0968951"
               stroke-miterlimit="10"
               d="m 92.555,145.724 c 8.434,-4.452 18.034,0.25 25.649,4.312 4.229,-2.854 9.524,-4.887 14.655,-3.598 4.44,1.239 7.31,5.328 8.821,9.456 0.998,3.519 -1.058,6.729 -2.616,9.704 6.281,6.408 12.217,13.459 15.594,21.873 3.68,9.916 -0.072,21.463 -7.806,28.381 -6.924,6.119 -13.784,12.48 -21.829,17.122 -8.743,4.793 -18.221,8.864 -28.132,10.144 4.46,-4.734 10.246,-7.979 14.874,-12.548 6.003,-5.296 11.119,-11.508 15.767,-18.004 3.385,-4.89 6.505,-10.239 7.045,-16.293 -2.169,-4.983 -6.929,-7.782 -10.875,-11.178 -5.996,7.16 -11.934,14.403 -18.748,20.815 -11.779,10.943 -24.62,20.648 -36.96,30.937 -13.131,10.562 -26.014,21.44 -39.269,31.843 -0.993,-1.783 0.792,-2.996 1.64,-4.264 23.061,-27.893 44.325,-57.189 66.219,-85.992 1.433,-1.931 2.662,-4 3.898,-6.059 -5.839,-3.695 -12.259,-8.715 -12.688,-16.207 0.139,-3.822 0.622,-8.869 4.761,-10.444 z"
               id="path20"
               style="fill:#f8bd96" />
            <path
               d="m 92.555,145.724 c 8.434,-4.452 18.034,0.25 25.649,4.312 4.229,-2.854 9.524,-4.887 14.655,-3.598 4.44,1.239 7.31,5.328 8.821,9.456 0.998,3.519 -1.058,6.729 -2.616,9.704 6.281,6.408 12.217,13.459 15.594,21.873 3.68,9.916 -0.072,21.463 -7.806,28.381 -6.924,6.119 -13.784,12.48 -21.829,17.122 -8.743,4.793 -18.221,8.864 -28.132,10.144 4.46,-4.734 10.246,-7.979 14.874,-12.548 6.003,-5.296 11.119,-11.508 15.767,-18.004 3.385,-4.89 6.505,-10.239 7.045,-16.293 -2.169,-4.983 -6.929,-7.782 -10.875,-11.178 -5.996,7.16 -11.934,14.403 -18.748,20.815 -11.779,10.943 -24.62,20.648 -36.96,30.937 -13.131,10.562 -26.014,21.44 -39.269,31.843 -0.993,-1.783 0.792,-2.996 1.64,-4.264 23.061,-27.893 44.325,-57.189 66.219,-85.992 1.433,-1.931 2.662,-4 3.898,-6.059 -5.839,-3.695 -12.259,-8.715 -12.688,-16.207 0.139,-3.822 0.622,-8.869 4.761,-10.444 z"
               id="path22"
               style="fill:#f8bd96;stroke-width:0.968951" />
          </g>
        </g>
      </g>
      <g
         id="g5137"
         transform="matrix(0.98036141,0,0,0.98036141,-162.98869,154.53836)"
         style="fill:#abe9b3;stroke-width:1.02004">
        <path
           d="m 597.28046,120.2782 c 1.70339,0.6395 3.67189,0.33761 5.19166,-0.62865 1.60179,-1.05728 2.57413,-2.92232 2.62916,-4.82865 -0.13282,-1.24142 -0.51302,-2.50322 -1.35149,-3.45678 -1.20332,-1.52479 -3.2303,-2.31166 -5.1472,-2.12804 -2.5236,0.25506 -4.69927,2.24605 -5.15858,4.74292 -0.48816,2.65298 1.26841,5.49672 3.83645,6.2992 z"
           id="path2-0"
           style="fill:#abe9b3;stroke-width:0.269884" />
        <path
           d="m 620.38997,121.1844 c -0.78476,-1.38933 -2.48947,-2.19737 -4.05977,-1.84177 -0.66093,-0.8681 -1.26788,-2.10688 -2.51672,-2.13915 -1.91585,-0.33894 -3.50917,1.19909 -4.31535,2.77547 -0.62098,1.77007 -0.51065,3.85128 0.59081,5.41497 -1.49225,1.4142 -3.35095,2.38389 -5.29828,3.00805 -0.76623,-1.38616 -1.37795,-3.1422 -2.98212,-3.7555 -1.06653,-0.51858 -2.27436,-0.0384 -3.26601,0.43312 -0.32015,0.82286 -0.49134,1.69254 -0.57574,2.56964 -2.22514,-1.62111 -3.32687,-4.21296 -5.01544,-6.29524 -0.96996,-0.84666 -2.0111,-2.023 -3.43403,-1.82589 -1.18401,0.29793 -2.07168,1.4695 -2.04972,2.6977 -0.0159,2.10343 1.15305,4.01584 2.54185,5.51471 1.48061,1.71952 3.27766,3.14378 5.21229,4.31985 1.32054,0.77232 2.75511,1.4015 4.27752,1.62745 0.70644,0.0995 1.55152,-0.17462 2.10688,0.40719 3.01148,2.47359 7.47977,3.73804 11.10271,1.86294 2.70827,-1.38986 3.86397,-4.40532 4.82573,-7.10433 0.82206,-0.21537 1.64968,-0.54028 2.2561,-1.15808 1.62164,-1.71186 1.8595,-4.52888 0.59929,-6.51113 z m -10.74553,11.65278 c -1.04907,0.27596 -1.93595,-0.45138 -2.65694,-1.10385 2.0992,-1.27105 3.85471,-3.08557 5.12868,-5.17763 0.51991,-0.0386 1.03902,-0.0871 1.5576,-0.1516 0.33496,0.53207 0.72866,1.02446 1.05834,1.56024 -1.25625,1.97327 -2.60694,4.34499 -5.08768,4.87284 z"
           id="path4-6"
           style="fill:#abe9b3;stroke-width:0.269884" />
        <path
           d="m 590.73335,143.65175 c -0.52546,-1.43113 -1.23904,-2.87575 -2.47518,-3.82375 -0.64743,-0.50377 -1.47108,-0.66596 -2.24181,-0.88424 -1.31472,0.51779 -2.43443,1.66661 -2.49264,3.14087 -0.0317,1.88886 0.51594,3.7248 0.97155,5.5409 0.67574,3.01096 1.17051,6.12246 0.80698,9.21041 -0.33311,2.79718 -1.64439,5.34115 -2.94561,7.79542 -2.80802,4.74768 -6.4299,8.94636 -9.93537,13.17493 -0.0392,0.10795 -0.11774,0.32464 -0.15716,0.43259 1.44727,-0.98875 2.77839,-2.14207 4.23466,-3.12155 2.82495,-2.06984 5.42607,-4.42331 8.04915,-6.73841 1.10464,-1.10649 2.27859,-2.15424 3.23585,-3.39672 3.11891,-3.89387 4.9157,-8.9072 4.56936,-13.91761 -0.10398,-2.54503 -0.82577,-5.00989 -1.61978,-7.41284 z"
           id="path6-32"
           style="fill:#abe9b3;stroke-width:0.269884" />
        <path
           d="m 604.15698,147.48768 c -1.31339,-1.76768 -3.01677,-3.20145 -4.81091,-4.45928 -1.51686,-1.13374 -3.2049,-2.22065 -5.13742,-2.39872 -0.92445,-0.0722 -1.76239,0.37148 -2.53682,0.81571 -0.29978,0.95489 -0.64823,2.03412 -0.16378,2.99376 0.88503,1.88622 2.78897,2.91518 4.32991,4.19286 3.13875,2.41194 6.13621,5.34802 7.45437,9.17363 2.24604,6.55558 2.14577,13.57127 2.55666,20.4044 0.35375,-0.61172 0.41858,-1.32027 0.55907,-1.99734 0.75009,-3.68273 1.30651,-7.40569 1.65232,-11.14769 0.28364,-2.00607 0.32782,-4.03489 0.27464,-6.0579 -0.26749,-4.12379 -1.62084,-8.24097 -4.17804,-11.51943 z"
           id="path8-0"
           style="fill:#abe9b3;stroke-width:0.269884" />
      </g>
      <g
         id="g5047"
         transform="matrix(0.21517914,0,0,0.21517914,494.01688,253.64664)"
         style="fill:#ddb6f2;stroke-width:4.64729">
        <path
           fill="#010101"
           stroke="none"
           d="m 632.75157,344.33568 c 0,-8.81945 0,-8.81945 2.46944,-11.99445 7.05556,-9.17222 12.34723,-17.28611 17.63889,-26.81111 4.23334,-8.81944 6.70278,-15.16944 7.40834,-21.16666 0.35277,-3.52778 1.05833,-12.7 1.41111,-25.04723 0.70555,-22.57777 2.11666,-31.39722 5.29166,-38.1 3.88056,-8.11388 8.46667,-11.28888 16.93334,-11.99444 3.52777,0 3.52777,0 4.93889,1.05833 2.82222,1.76389 5.64444,5.99723 7.05555,10.93611 0.70556,2.82223 0.70556,10.58334 0,16.22778 -1.41111,13.05278 -6.70278,35.98333 -10.58333,47.625 -2.82222,9.17222 -7.05556,18.69722 -11.99445,26.45833 -8.46666,14.46389 -22.57777,29.28056 -37.39444,39.51111 l -3.175,2.11667 z m 50.8,-13.40556 -0.35278,-0.35278 3.88056,-3.175 c 2.11666,-1.76389 8.81944,-7.40833 14.81666,-11.99444 14.46389,-11.64167 19.40278,-15.875 26.81111,-22.93056 5.64445,-5.99722 9.17223,-9.87777 10.58334,-13.05277 1.05833,-1.76389 0.70555,-3.52778 -0.70556,-6.35 -1.76389,-3.52778 -4.93889,-6.70278 -21.87222,-19.75556 -7.40833,-5.99722 -12.7,-11.64167 -15.52222,-16.93333 -1.05834,-2.11667 -1.05834,-3.175 -1.41111,-5.29167 0,-4.58611 1.41111,-8.81944 3.88055,-10.93611 4.23334,-2.82222 11.64167,-2.82222 20.46111,0 6.35,2.11667 13.75834,7.40833 21.51945,15.875 12.34722,13.40556 20.10833,31.04444 18.69722,42.33333 -0.35278,4.23334 -1.76389,8.11389 -3.52778,10.58334 -3.52778,5.29166 -13.05278,13.40555 -23.98889,19.75555 -14.81666,8.81945 -26.10555,14.11111 -43.03889,19.75556 -8.81944,2.82222 -9.17222,3.175 -10.23055,2.46944 z M 859.58768,197.22735 c -1.05834,-2.46945 -3.52778,-8.46667 -4.23334,-10.23056 l -1.05833,-1.76389 h -1.76389 c -0.70555,0 -4.58611,0.35278 -8.11389,0.70556 -13.40555,1.05833 -34.57222,0 -55.38611,-2.11667 -15.16944,-1.76389 -24.34166,-4.93889 -29.28055,-9.87778 -3.175,-3.175 -4.58611,-5.99722 -4.58611,-8.81944 0,-3.52778 1.05833,-4.93889 4.23333,-6.35 3.88055,-2.11667 7.05555,-2.82222 12.34722,-2.82222 7.05556,0 10.58333,1.05833 30.33889,8.81944 11.28889,4.58611 16.58055,6.70278 22.57778,7.76111 4.23333,0.70556 25.75277,3.52778 26.10555,3.175 v -0.35278 l -1.76389,-4.58611 -1.76389,-4.58611 v -0.35278 h 0.35278 l 1.41111,0.35278 c 0.70556,0.35278 3.52778,1.76389 6.35,2.82222 10.58334,4.93889 11.64167,5.29167 12.7,5.29167 1.76389,-0.35278 2.11667,-0.70555 27.86945,-12.34722 4.23333,-1.76389 9.17222,-3.88056 11.28889,-4.93889 3.52777,-1.76389 10.58333,-4.58611 19.04999,-8.46667 2.11667,-1.05833 4.93889,-2.46944 6.70278,-3.175 1.76389,-0.70555 4.58611,-2.11666 7.05556,-3.175 2.11666,-1.05833 6.35,-2.82222 9.525,-4.23333 2.82222,-1.41111 7.05555,-3.175 9.525,-4.23333 2.11666,-1.05834 4.93889,-2.46945 6.70277,-3.175 1.76389,-0.70556 4.93889,-2.11667 7.05556,-3.175 2.11667,-1.05834 5.29167,-2.46945 6.70278,-2.82222 1.41111,-0.70556 4.23333,-2.11667 6.35,-3.175 2.11666,-1.05834 4.23333,-1.76389 4.23333,-1.76389 0.35278,0 0.70556,0.70555 1.05833,1.41111 l 0.70556,1.05833 -1.05833,0.70556 c -0.70556,0.35277 -1.41111,0.70555 -1.41111,0.70555 -0.35278,0 -2.11667,0.70556 -4.58612,1.76389 -3.52777,1.76389 -15.16944,7.05556 -26.10555,11.99444 -11.64167,5.29167 -17.63889,8.11389 -19.75556,9.17223 -3.52777,1.41111 -9.87777,4.23333 -13.05277,5.64444 -1.76389,0.70556 -4.93889,2.11667 -6.70278,3.175 -1.76389,0.70556 -5.29167,2.11667 -7.40833,3.175 -2.11667,1.05833 -4.58611,2.11667 -5.29167,2.46945 -5.99722,2.82222 -8.46667,3.88055 -12.34722,5.64444 -4.58611,1.76389 -9.17222,3.88056 -14.11111,6.35 -1.76389,0.70556 -4.58611,2.11667 -6.35,2.82222 -2.11667,0.70556 -3.88056,1.76389 -4.23334,2.11667 -1.05833,0.70555 -1.41111,1.41111 -5.64444,11.64166 -1.76389,4.58612 -3.175,8.46667 -3.52778,8.46667 l -0.35278,0.35278 z m -168.275,-54.32778 c -7.05556,-1.41111 -15.52222,-5.99722 -25.4,-14.46389 -12.7,-9.87778 -18.69722,-21.51944 -21.16667,-38.805554 -0.70555,-3.880555 -0.70555,-14.463889 0,-18.697222 1.41112,-11.641666 5.64445,-23.63611 11.28889,-31.749999 2.46945,-3.527778 6.35,-8.113889 7.40834,-8.113889 l 1.05833,-0.352778 -0.70556,1.763889 c -0.35277,1.058334 -1.76389,5.291667 -3.52777,9.525 -2.11667,4.938889 -3.175,8.113889 -3.52778,10.230555 -1.05833,7.761111 -1.05833,19.755555 0.35278,26.458333 1.05833,4.938889 2.11666,8.466667 4.58611,13.052778 1.76389,3.527777 2.11666,4.233333 4.93889,7.408333 3.88055,3.527774 8.11388,6.702774 14.81666,9.877774 15.16945,7.40834 18.34445,8.81945 21.16667,10.93611 4.93889,3.88056 7.76111,8.46667 7.40833,11.99445 -0.70555,4.58611 -2.82222,7.76111 -7.05555,9.87778 -3.88056,1.76388 -7.40834,2.11666 -11.64167,1.05833 z m 57.85555,-2.82222 c -4.93888,-1.41111 -9.17222,-3.52778 -12.7,-7.05556 -8.81944,-8.81944 -10.58333,-21.87222 -4.23333,-32.80833 1.76389,-2.822223 5.99722,-7.055556 9.17222,-8.819445 3.88056,-2.469445 7.40834,-3.175 12.34723,-3.527778 4.93888,0 8.11388,0.352778 12.34722,2.469445 6.70277,3.174999 10.93611,8.113888 13.40555,15.169448 4.93889,13.75833 -2.82222,29.28055 -16.93333,33.86666 -3.175,1.05833 -10.23056,1.41111 -13.40556,0.70556 z"
           id="path2-6"
           style="fill:#ddb6f2;stroke-width:1.63945" />
        <path
           fill="#232323"
           stroke="none"
           d="m 651.44879,338.33845 c 0.35278,-0.70555 1.05834,-1.05833 1.05834,-1.05833 v 0 l -0.70556,1.05833 c -0.35278,0.35278 -1.05833,0.70556 -1.05833,0.70556 v 0 z m 5.64445,-5.64444 c 0.35277,-0.70556 1.05833,-1.05833 1.05833,-1.05833 v 0 l -0.70556,1.05833 c -0.35277,0.35278 -1.05833,0.70556 -1.05833,0.70556 v 0 z m 66.32222,-35.27778 c 0,-0.35278 0.70555,-0.70555 0.70555,-0.70555 v 0 l -0.35278,0.70555 c -0.35277,0.35278 -1.05833,0.70556 -1.05833,0.70556 v 0 z m 9.87777,-9.87778 c 0,-0.35277 0.35278,-0.35277 0.70556,-0.70555 l 0.70556,-0.35278 -0.70556,0.35278 c -0.35278,0.35278 -0.35278,0.70555 -0.70556,0.70555 z m 31.04445,-11.99444 v -1.05833 l 0.35278,0.35278 c 0,0.35277 0,1.05833 0,1.41111 l -0.35278,0.70555 z m -103.36389,-2.82222 v -0.35278 l 0.35278,0.35278 v 0.35278 0.35277 h -0.35278 z m 73.37778,-4.93889 -0.70556,-1.05833 1.05834,0.70555 c 0.70555,0.70556 1.05833,1.41111 1.05833,1.41111 v 0 0 c 0,0 -0.70556,-0.35277 -1.41111,-1.05833 z m -73.025,-3.175 v -0.70556 l 0.35278,0.35278 c 0,0 0,0.70556 0,0.70556 l -0.35278,0.70555 z m 0.35278,-10.23056 v -0.35277 l 0.35277,0.35277 v 0.35278 0.35278 h -0.35277 z m 0.35277,-7.40833 v -0.35278 l 0.35278,0.35278 v 0.35278 0.35278 h -0.35278 z m 80.43334,-13.75833 -0.35278,-0.70556 0.70555,0.35278 c 0.35278,0.35278 0.70556,0.70556 0.70556,1.05833 v 0 0 c -0.35278,0 -0.70556,-0.35277 -1.05833,-0.70555 z m -30.33889,-15.52222 h 0.35278 0.35277 v 0.35277 h -0.70555 -0.35278 z m -40.56945,-3.52778 c 0.35278,-0.70556 1.05834,-1.05833 1.05834,-1.05833 v 0 l -0.70556,1.05833 c -0.35278,0.35278 -1.05833,0.70555 -1.05833,0.70555 v 0 z m 18.69723,-2.82222 -0.70556,-0.70556 0.70556,0.70556 c 0.70555,0.35277 1.05833,0.70555 1.05833,1.05833 v 0 0 c -0.35278,0 -0.70556,-0.35278 -1.05833,-1.05833 z m 169.6861,-13.40556 c -0.35277,0 -0.35277,-0.35278 -0.35277,-0.35278 v -0.35277 l 0.35277,0.35277 h 0.35278 l 1.05833,-2.11666 0.70556,-2.11667 h 0.35278 v 0.35278 l -1.05834,2.11666 c -1.05833,2.46945 -1.05833,2.46945 -1.41111,2.11667 z m -2.46944,-5.29167 -1.41111,-3.52777 v -0.35278 h 0.35278 l 1.41111,3.52778 1.41111,3.52777 v 0.35278 h -0.35278 z m 4.93889,0.35278 c 0,-0.35278 0,-0.70555 0.35278,-1.05833 l 0.35277,-0.35278 v 0.35278 c 0,0 0,0.35278 -0.35277,0.70555 l -0.35278,0.70556 z m 1.05833,-2.82222 c 0,-0.35278 0,-0.70556 0.35278,-1.05833 l 0.35278,-0.35278 v 0.35278 c 0,0 0,0.35277 -0.35278,0.70555 l -0.35278,0.70556 z m 0.70556,-2.11667 c 0.35277,-0.35277 0.70555,-1.05833 1.05833,-2.11666 l 0.35278,-1.41111 h 0.35278 v 0.35277 l -0.70556,1.76389 -1.05833,2.11667 z m -9.525,-2.46944 -0.35278,-0.70556 0.35278,0.35278 c 0.35278,0.70556 0.70555,1.05833 0.70555,1.05833 v 0.35278 0 h -0.35277 z m -34.21945,0.35278 h 0.35278 0.35278 v 0.35277 h -0.70556 -0.35277 z m 18.69723,0 h 0.35277 0.35278 v 0.35277 h -0.70555 -0.35278 z m -26.10556,-0.35278 h 0.35278 0.35278 v 0.35278 h -0.70556 -0.35278 z m 52.91667,-1.41111 c 0,-0.35278 0,-0.70556 0.35277,-1.05833 l 0.35278,-0.35278 v 0.35278 c 0,0 0,0.35277 -0.35278,0.70555 l -0.35277,0.70556 z m 1.05833,-2.46945 c 0,-0.35277 0.35278,-1.05833 0.70555,-1.41111 l 0.35278,-0.70555 v 0.35278 c 0,0 -0.35278,0.70555 -0.35278,1.05833 l -0.70555,1.05833 z m 1.05833,-2.82222 c 0,-0.35278 1.41111,-1.76389 1.76389,-1.76389 v 0 l -0.70555,1.05834 c -0.35278,0.35277 -1.05834,1.05833 -1.05834,1.05833 v 0 z m -17.28611,-3.175 v -0.70555 h 0.35278 v 0.35277 l -0.35278,0.35278 -0.35278,0.70556 z m 22.57778,0 c 0.35278,-0.35278 1.05833,-0.70555 1.41111,-0.70555 h 0.35278 l -1.05834,0.70555 c -0.35277,0 -1.05833,0.35278 -1.05833,0.35278 h -0.35278 z m -22.93056,-1.76389 c -0.35277,0 -0.35277,-0.35277 -0.35277,-0.70555 v 0 l 0.35277,0.35278 0.35278,0.70555 v 0.35278 h -0.35278 z m 17.63889,0.35278 c 0.70556,-0.35278 2.46945,-0.70555 3.52778,-1.05833 l 1.76389,-1.05834 h 0.35278 v 0.35278 l -2.11667,0.70556 c -1.05833,0.70555 -2.82222,1.05833 -3.52778,1.41111 h -1.41111 z m -3.88055,-0.70555 -0.70556,-0.70556 h 0.35278 c 0,0 0.70555,0.35278 1.05833,0.70556 l 1.05834,0.35277 h -0.35278 c -0.35278,0 -1.05834,-0.35277 -1.41111,-0.35277 z m 14.81666,-0.70556 c 0,0 3.88056,-1.76389 4.23334,-1.76389 h 0.35277 l -2.11666,1.05833 c -1.41111,0.70556 -2.46945,1.05834 -2.46945,1.05834 v 0 z m -29.28055,-0.70556 c -0.35278,0 -0.35278,-0.35277 -0.35278,-0.70555 v 0 l 0.35278,0.35278 0.35278,0.70555 v 0.35278 h -0.35278 z m 11.99444,0.35278 -0.70555,-0.70555 h 0.35277 c 0,0 0.70556,0.35277 1.05834,0.70555 l 1.05833,0.35278 h -0.35278 c -0.35277,0 -1.05833,-0.35278 -1.41111,-0.35278 z m 13.40556,-1.05833 c 0.35278,-0.35278 0.70555,-0.35278 1.05833,-0.35278 h 0.35278 l -0.70556,0.35278 c -0.35277,0.35278 -0.70555,0.35278 -0.70555,0.35278 h -0.35278 z m -17.99167,-1.05833 c -1.05833,-0.70556 -2.11666,-1.05834 -2.11666,-1.05834 v -0.35278 l 1.76388,0.70556 c 1.05834,0.70556 2.46945,1.05833 2.82223,1.41111 l 0.70555,0.35278 h -0.35278 c -0.35277,0 -1.41111,-0.35278 -2.82222,-1.05833 z m -8.46666,-0.70556 -0.70556,-1.41111 v -0.35278 h 0.35278 l 0.35278,1.41111 0.70555,1.41111 v 0.35278 h -0.35278 z m 29.28055,0.70556 c 0.70556,-0.70556 1.76389,-1.05834 2.11667,-1.05834 h 0.35277 l -1.76388,1.05834 c -0.70556,0.35277 -1.76389,0.70555 -1.76389,0.70555 h -0.35278 z m 7.40833,-0.35278 c 1.05834,-0.70556 2.11667,-1.05834 2.46945,-1.05834 h 0.35278 l -2.11667,1.05834 c -1.05833,0.70555 -2.11667,1.05833 -2.11667,1.05833 h -0.35278 z m -4.23333,-1.05834 c 0,-0.35277 1.41111,-0.70555 2.46944,-1.41111 l 2.46945,-1.05833 v 0.35278 c 0,0 -4.58611,2.11666 -4.93889,2.11666 z m 8.11389,-0.70555 c 0.35278,-0.35278 0.70555,-0.35278 1.05833,-0.35278 h 0.35278 l -0.70556,0.35278 c -0.35277,0.35278 -0.70555,0.35278 -0.70555,0.35278 h -0.35278 z m -38.80556,-1.05833 c -1.41111,-0.70556 -2.46944,-1.05834 -2.46944,-1.05834 h -0.35278 v 0.70556 l 0.35278,1.05833 -0.35278,-0.70555 c 0,-0.35278 -0.35278,-0.70556 -0.35278,-1.05834 v -0.35278 h 0.35278 c 0.35278,0 1.76389,0.70556 3.175,1.05834 l 2.46945,1.41111 h -0.35278 c -0.35278,0 -1.41111,-0.35278 -2.46945,-1.05833 z m 41.275,0 c 0.70556,-0.35278 1.41111,-0.70556 1.76389,-0.70556 h 0.35278 l -1.41111,0.70556 c -0.70556,0.35277 -1.41111,0.70555 -1.41111,0.70555 h -0.35278 z m 3.175,-1.41112 c 0.35278,-0.35277 0.70556,-0.35277 1.05834,-0.35277 h 0.35277 l -0.70555,0.35277 c -0.35278,0.35278 -0.70556,0.35278 -0.70556,0.35278 h -0.35277 z m -5.64444,-0.70555 c 0.35278,-0.35278 0.70555,-0.35278 1.05833,-0.35278 h 0.35278 l -0.70556,0.35278 c -0.35277,0.35278 -0.70555,0.35278 -0.70555,0.35278 h -0.35278 z m 8.11389,0 c 0,-0.35278 1.05833,-0.70556 2.11666,-1.41111 l 2.11667,-1.05834 h 0.35278 v 0.35278 l -2.46945,1.05834 z m -1.05834,-3.175 c 0.70556,-0.35278 1.41112,-0.70556 1.76389,-0.70556 h 0.35278 l -1.41111,0.70556 c -0.70556,0.35278 -1.41111,0.70555 -1.41111,0.70555 h -0.35278 z m 6.35,0.35278 c 0.35278,-0.35278 0.70556,-0.35278 1.05834,-0.35278 h 0.35278 l -0.70556,0.35278 c -0.35278,0.35277 -0.70556,0.35277 -0.70556,0.35277 h -0.35277 z m 1.76389,-1.05834 c 0.70556,0 1.05834,-0.35277 1.05834,-0.35277 h 0.35277 v 0.35277 c -0.35277,0 -0.70555,0.35278 -1.05833,0.35278 l -0.70555,0.35278 z m -147.4611,-1.05833 c 0,-0.35278 0.70555,-0.70556 0.70555,-0.70556 v 0 l -0.35278,0.70556 c -0.35277,0.35278 -1.05833,0.70556 -1.05833,0.70556 v 0 z m 143.22777,0 c 0.35278,-0.35278 0.70556,-0.35278 1.05833,-0.35278 h 0.35278 l -0.70555,0.35278 c -0.35278,0.35278 -0.70556,0.35278 -0.70556,0.35278 h -0.35278 z m 7.05556,0 c 0.35277,-0.35278 0.70555,-0.35278 1.05833,-0.35278 h 0.35278 l -0.70556,0.35278 c -0.35278,0.35278 -0.70555,0.35278 -0.70555,0.35278 h -0.35278 z m -5.64445,-0.35278 c 0,-0.35278 1.05833,-0.70555 2.11667,-1.05833 l 1.76389,-1.05833 v 0 c 0,0.35277 -3.52778,2.11666 -3.88056,2.11666 z m 8.11389,-0.70555 c 0.35278,-0.35278 0.70555,-0.35278 1.05833,-0.35278 h 0.35278 l -0.70556,0.35278 c -0.35277,0.35277 -0.70555,0.35277 -0.70555,0.35277 h -0.35278 z m 1.41111,-0.35278 c 0,-0.35278 0.35278,-0.70556 1.05833,-1.05833 l 1.05834,-0.35278 h 0.35277 v 0.35278 l -1.41111,0.35277 z m 3.52778,-1.76389 c 0.35278,-0.35278 1.05833,-0.70556 1.41111,-0.70556 h 0.35278 l -1.05834,0.70556 c -0.35277,0 -1.05833,0.35278 -1.05833,0.35278 h -0.35278 z m -6.70278,-0.35278 c 0.35278,-0.35278 0.70556,-0.35278 1.05833,-0.35278 h 0.35278 l -0.70555,0.35278 c -0.35278,0.35278 -0.70556,0.35278 -0.70556,0.35278 h -0.35278 z m 1.41111,-0.35278 c 0,-0.35277 0.70556,-0.35277 1.41111,-0.70555 l 1.05834,-0.70556 v 0 c 0,0.35278 -2.11667,1.41111 -2.46945,1.41111 z m 9.17222,-1.05833 c 1.41111,-0.70555 2.46945,-1.41111 2.82223,-1.41111 h 0.35277 l -2.46944,1.41111 c -1.41111,0.35278 -2.46945,1.05833 -2.46945,1.05833 h -0.35277 z m -147.4611,0.35278 c 0.35277,0 1.05833,0 1.41111,0 l 0.70555,0.35278 h -1.41111 -1.05833 z m 141.46388,-1.05833 c 0.35278,-0.35278 0.70556,-0.35278 1.05833,-0.35278 h 0.35278 l -0.70555,0.35278 c -0.35278,0.35277 -0.70556,0.35277 -0.70556,0.35277 h -0.35278 z m 2.46945,-1.05834 c 0.35277,-0.35278 0.70555,-0.35278 1.05833,-0.35278 h 0.35278 l -0.70556,0.35278 c -0.35278,0.35278 -0.70555,0.35278 -0.70555,0.35278 h -0.35278 z m 1.41111,-0.35278 c 0,-0.35277 0.70555,-0.35277 1.41111,-0.70555 l 1.05833,-0.70556 v 0 c 0,0.35278 -2.11667,1.41111 -2.46944,1.41111 z m 8.46666,-0.70555 c 0.70556,-0.70556 1.76389,-1.05833 2.11667,-1.05833 h 0.35278 l -1.76389,1.05833 c -0.70556,0.35278 -1.76389,0.70555 -1.76389,0.70555 h -0.35278 z m -2.11666,-2.46945 c 1.05833,-0.70555 2.11666,-1.05833 2.46944,-1.05833 h 0.35278 l -2.11667,1.05833 c -1.05833,0.70556 -2.11666,1.05834 -2.11666,1.05834 h -0.35278 z m 9.525,-1.05833 c 1.41111,-0.70555 3.175,-1.41111 3.52777,-1.41111 l 1.05834,-0.35278 -3.52778,1.41111 c -1.76389,1.05834 -3.52778,1.76389 -3.52778,1.76389 v 0 z m -2.11667,-2.11667 c 0.70556,-0.70555 1.76389,-1.05833 2.11667,-1.05833 h 0.35277 l -1.76388,1.05833 c -0.70556,0.35278 -1.76389,0.70556 -1.76389,0.70556 h -0.35278 z m 7.76111,-0.70555 c 0.70556,0 1.05833,-0.35278 1.05833,-0.35278 h 0.70556 l -0.70556,0.70556 c -0.70555,0 -1.05833,0.35277 -1.05833,0.35277 h -0.35278 z m -4.93889,-0.70556 c 0.35278,-0.35277 0.70556,-0.35277 1.05834,-0.35277 h 0.35277 l -0.70555,0.35277 c -0.35278,0.35278 -0.70556,0.35278 -0.70556,0.35278 h -0.35278 z m 7.40834,0 c 0.35277,-0.35277 1.05833,-0.70555 1.41111,-0.70555 h 0.35277 l -1.05833,0.70555 c -0.35278,0 -1.05833,0.35278 -1.05833,0.35278 h -0.35278 z m -3.52778,-1.76389 c 1.05833,-0.70555 2.11666,-1.05833 2.46944,-1.05833 h 0.35278 l -2.11667,1.05833 c -1.05833,0.70556 -2.11666,1.05834 -2.11666,1.05834 h -0.35278 z m 6.35,0.35278 c 0.70555,-0.35278 1.41111,-0.70555 1.76389,-0.70555 h 0.35277 l -1.41111,0.70555 c -0.70555,0.35278 -1.41111,0.70556 -1.41111,0.70556 h -0.35278 z m -2.46945,-2.11666 c 0.35278,-0.35278 0.70556,-0.35278 1.05834,-0.35278 h 0.35277 l -0.70555,0.35278 c -0.35278,0.35277 -0.70556,0.35277 -0.70556,0.35277 h -0.35277 z m 2.11667,-0.70556 v -0.35278 h 0.70556 l 0.35277,-0.35278 -0.35277,0.35278 c 0,0.35278 -0.35278,0.35278 -0.35278,0.35278 z m 8.11389,-0.35278 c 0,-0.35278 0.35278,-0.70555 1.05833,-1.05833 l 1.05834,-0.35278 h 0.35277 v 0.35278 l -1.41111,0.35278 z m -3.52778,-1.76389 c 0.35278,-0.35277 1.05833,-0.70555 1.41111,-0.70555 h 0.35278 l -1.05833,0.70555 c -0.35278,0 -1.05834,0.35278 -1.05834,0.35278 h -0.35277 z m 7.05556,0 c 0.35277,-0.35277 1.05833,-0.70555 1.41111,-0.70555 h 0.35278 l -1.05834,0.70555 c -0.35278,0 -1.05833,0.35278 -1.05833,0.35278 h -0.35278 z m -3.88056,-1.41111 c 0.70556,-0.70555 1.76389,-1.05833 2.11667,-1.05833 h 0.35278 l -1.76389,1.05833 c -0.70556,0.35278 -1.76389,0.70556 -1.76389,0.70556 h -0.35278 z m 5.99722,0.70556 c 0,-0.35278 0.70556,-0.70556 1.76389,-1.41111 l 1.76389,-0.70556 h 0.35278 v 0.35278 l -2.11667,0.70555 z m -1.41111,-3.175 2.46945,-1.05833 h 0.35277 v 0.35277 l -2.11666,1.05834 c -1.41111,0.70555 -2.46945,1.05833 -2.82222,1.05833 v 0 z m 5.99722,0.70555 c 0.35278,-0.35277 0.70556,-0.35277 1.05834,-0.35277 h 0.35277 l -0.70555,0.35277 c -0.35278,0.35278 -0.70556,0.35278 -0.70556,0.35278 h -0.35277 z m 3.88056,-1.76388 c 1.05833,-0.70556 2.11667,-1.05834 2.46944,-1.05834 h 0.35278 l -2.11667,1.05834 c -1.05833,0.70555 -2.11666,1.05833 -2.11666,1.05833 h -0.35278 z m -228.24722,-0.70556 -0.35278,-0.35278 0.35278,0.35278 c 0.35278,0.35278 0.70556,0.35278 0.70556,0.70556 v 0 0 c -0.35278,0 -0.35278,-0.35278 -0.70556,-0.70556 z m 36.33611,-0.35278 c 0.35278,-0.70555 1.05834,-1.05833 1.05834,-1.05833 v 0 l -0.70556,1.05833 c -0.35278,0.35278 -1.05833,0.70556 -1.05833,0.70556 v 0 z m 189.44166,-1.05833 c 1.05834,-0.70556 2.11667,-1.05833 2.46945,-1.05833 h 0.35278 l -2.11667,1.05833 c -1.05833,0.70555 -2.11667,1.05833 -2.11667,1.05833 h -0.35277 z m 8.46667,-0.70556 c 1.41111,-0.70555 3.175,-1.41111 3.52778,-1.41111 h 0.35278 l -3.52778,1.76389 c -1.76389,0.70556 -3.52778,1.41111 -3.52778,1.41111 v 0 z m -236.00833,0.35278 -0.35277,-0.35278 0.35277,0.35278 c 0.35278,0.35278 0.70556,0.35278 0.70556,0.70556 v 0 0 c -0.35278,0 -0.35278,-0.35278 -0.70556,-0.70556 z m 234.95,-2.82222 c 0.70555,-0.70556 1.76389,-1.05833 2.11666,-1.05833 h 0.35278 l -1.76389,1.05833 c -0.70555,0.35278 -1.76389,0.70555 -1.76389,0.70555 h -0.35277 z m 7.76111,-0.35278 0.35278,-0.35278 h 0.35277 v 0.35278 h -0.70555 l -0.35278,0.35278 z m -4.93889,-1.05833 c 0.35278,-0.35278 0.70556,-0.35278 1.05833,-0.35278 h 0.35278 l -0.70555,0.35278 c -0.35278,0.35278 -0.70556,0.35278 -0.70556,0.35278 h -0.35278 z m 7.05556,0 c 0.35277,-0.35278 0.70555,-0.35278 1.05833,-0.35278 h 0.35278 l -0.70556,0.35278 c -0.35278,0.35278 -0.70555,0.35278 -0.70555,0.35278 h -0.35278 z m -316.79444,-1.05834 -0.35278,-0.35277 0.35278,0.35277 c 0.35278,0.35278 0.70555,0.35278 0.70555,0.70556 v 0 0 c -0.35277,0 -0.35277,-0.35278 -0.70555,-0.70556 z m 311.14999,0.70556 c 0,-0.35278 0.70556,-0.70556 1.76389,-1.05833 l 1.41111,-0.70556 v 0 c 0,0.35278 -2.82222,1.76389 -3.175,1.76389 z m 8.81945,-1.05833 c 0,0 1.05833,-0.35278 2.46944,-1.05834 l 2.11667,-1.05833 v 0 l 0.35277,0.35278 -2.46944,1.05833 -2.46944,1.05833 z m -4.93889,-1.05834 c 0.35277,-0.35277 0.70555,-0.35277 1.05833,-0.35277 h 0.35278 l -0.70556,0.35277 c -0.35278,0.35278 -0.70555,0.35278 -0.70555,0.35278 h -0.35278 z m 10.93611,-1.41111 c 0,0 0.70555,-0.70555 1.41111,-1.05833 l 1.41111,-0.70556 v 0.35278 c 0,0 -2.11667,1.41111 -2.46944,1.41111 z m -283.98611,-1.05833 -0.35277,-0.70556 0.70555,0.35278 c 0.35278,0.35278 0.70556,0.70556 0.70556,1.05833 v 0 0 c -0.35278,0 -0.70556,-0.35277 -1.05834,-0.70555 z m 278.69444,0 c 0.70556,-0.35278 1.41111,-0.70556 1.76389,-0.70556 h 0.35278 l -1.41111,0.70556 c -0.70556,0.35278 -1.41111,0.70555 -1.41111,0.70555 h -0.35278 z m -325.61388,-1.05833 -0.35278,-0.35278 0.35278,0.35278 c 0.35278,0.35277 0.70555,0.35277 0.70555,0.70555 v 0 0 c -0.35277,0 -0.35277,-0.35278 -0.70555,-0.70555 z m 329.49444,-0.70556 c 1.05833,-0.70556 2.11666,-1.05833 2.46944,-1.05833 h 0.70556 v 0.70555 l 0.35277,0.35278 -0.35277,-0.35278 c -0.35278,-0.35278 -1.05834,-0.35278 -2.82223,0.35278 -1.05833,0.70556 -2.11666,1.05833 -2.11666,1.05833 v 0 z m -206.72778,-5.64444 v -0.35278 l 0.35278,0.35278 v 0.35277 0.35278 h -0.35278 z m 0,-2.46945 v -0.35278 l 0.35278,0.35278 v 0.35278 0.35278 h -0.35278 z m -6.70277,-16.227776 -0.35278,-0.352778 0.35278,0.352778 c 0.35277,0.352777 0.70555,0.352777 0.70555,0.705555 v 0 0 c -0.35278,0 -0.35278,-0.352778 -0.70555,-0.705555 z m -130.175,-14.463889 v -1.058333 l 0.35278,0.352778 c 0,0.352777 0,1.058333 0,1.411111 l -0.35278,0.705555 z m 0,-2.822222 V 77.98846 l 0.35278,0.352777 c 0,0.352778 0,1.058334 0,1.058334 l -0.35278,0.705555 z m 11.64167,-11.994444 v -1.411111 l 0.35277,0.705555 c 0,0.352778 0,1.058333 0,1.411111 l -0.35277,1.058334 z m 0,-3.527778 v -1.058333 l 0.35277,0.352777 c 0,0.352778 0,1.058334 0,1.058334 l -0.35277,0.705555 z"
           id="path4-1"
           style="fill:#ddb6f2;stroke-width:1.63945" />
        <path
           fill="#ffffff"
           stroke="none"
           d=""
           id="path6-5"
           style="fill:#ddb6f2;stroke-width:1.63945" />
        <path
           fill="#ffffff"
           stroke="none"
           d=""
           id="path8-5"
           style="fill:#ddb6f2;stroke-width:1.63945" />
        <path
           fill="#ffffff"
           stroke="none"
           d=""
           id="path10-4"
           style="fill:#ddb6f2;stroke-width:1.63945" />
        <path
           fill="#ffffff"
           stroke="none"
           d=""
           id="path12-7"
           style="fill:#ddb6f2;stroke-width:1.63945" />
        <path
           fill="#ffffff"
           stroke="none"
           d=""
           id="path14-6"
           style="fill:#ddb6f2;stroke-width:1.63945" />
        <path
           fill="#ffffff"
           stroke="none"
           d=""
           id="path16-5"
           style="fill:#ddb6f2;stroke-width:1.63945" />
      </g>
      <g
         id="g5131"
         transform="matrix(0.99918101,0,0,0.99918101,-76.996824,-51.330364)"
         style="fill:#f28fad;stroke-width:1.00083">
        <rect
           width="4.4740553"
           height="2.0396428"
           ry="0.36187211"
           x="451.9198"
           y="378.5816"
           style="fill:#f28fad;fill-opacity:1;stroke:none;stroke-width:0.31776;stroke-linejoin:round;stroke-miterlimit:4;stroke-dasharray:none;stroke-opacity:1"
           id="rect2258" />
        <path
           d="m 437.72581,320.1204 a 5.7689805,5.7689805 0 1 1 -11.53796,0 5.7689805,5.7689805 0 1 1 11.53796,0 z"
           style="fill:#f28fad;fill-opacity:1;stroke:none;stroke-width:0.328351;stroke-linejoin:round;stroke-miterlimit:4;stroke-dasharray:none;stroke-opacity:1"
           id="path2236" />
        <path
           d="m 393.6301,349.38159 c 0.53072,0.1945 1.0581,0.39811 1.58523,0.60324 -1.32931,2.21011 -3.104,4.18535 -3.9964,6.6348 0.0124,0.66074 0.33001,1.26079 0.56669,1.86344 -0.38065,0.40316 -0.76297,0.80486 -1.15712,1.19561 -0.53597,-1.16072 -1.37173,-2.38466 -0.92132,-3.72492 0.91097,-2.40586 2.586,-4.40456 3.92292,-6.57217 z"
           style="fill:#f28fad;fill-rule:nonzero;stroke:none;stroke-width:0.2648"
           id="path2261" />
        <path
           d="m 409.1856,373.79889 c 1.56383,1.41497 3.11013,2.85787 4.812,4.10917 0.90611,0.61628 2.07429,0.21603 3.08658,0.47055 0.44531,0.28455 0.69675,0.78436 1.02709,1.1849 -1.46687,0.3178 -3.12925,1.02212 -4.49135,0.0311 -2.08276,-1.22862 -3.66929,-3.09178 -5.53797,-4.59804 0.36723,-0.40015 0.73576,-0.79881 1.10365,-1.1977 z"
           style="fill:#f28fad;fill-rule:nonzero;stroke:none;stroke-width:0.2648"
           id="path2265" />
        <path
           d="m 408.98511,342.43567 c 0.0125,-2.26083 1.97596,-4.31639 3.8408,-4.4671 0.72205,-0.0584 1.26678,0.98846 1.89674,1.48928 1.34365,-0.36859 2.92119,-0.94555 4.17578,-0.0607 2.392,1.46768 3.21684,4.34186 4.00433,6.84944 1.02551,3.70536 2.49417,7.43997 2.02334,11.36267 -0.94272,3.5518 -2.61132,6.9527 -5.0642,9.71046 -2.34386,2.61519 -4.97799,4.96718 -7.80117,7.05352 3.35956,-4.3883 6.67115,-9.2034 7.49648,-14.79675 0.62233,-4.07787 -1.55386,-7.81951 -3.36582,-11.27977 -0.37993,3.51257 -0.94475,7.227 -3.08008,10.1545 -1.48892,1.79675 -3.90916,2.42651 -6.14702,1.90327 -4.6844,-1.21142 -9.12588,-3.77095 -11.99309,-7.7436 3.55375,1.0396 6.92232,2.83486 10.70864,2.93142 1.08625,0.13395 2.69701,0.18261 3.17989,-1.07305 0.97903,-3.95927 -0.11521,-8.03227 0.12538,-12.0336 z"
           style="fill:#f28fad;fill-rule:nonzero;stroke:none;stroke-width:0.2648"
           id="path2257" />
        <path
           d="m 421.33787,323.46164 c 1.07875,-0.40971 2.38646,0.0833 2.85439,1.10562 1.25637,2.30002 0.46803,5.04047 0.73919,7.5118 0.57796,3.77464 1.3235,7.71289 3.71556,10.81323 -1.58289,-4.19504 -2.47213,-8.9183 -0.95941,-13.26727 0.43684,-0.89029 0.81821,-1.92706 2.06816,-2.14585 1.54726,-0.27084 3.01985,1.02752 2.86003,2.63852 -0.30037,4.79358 -1.81051,9.94968 0.35554,14.51192 5.0148,9.93832 9.71783,20.03429 14.78104,29.94941 0.1747,0.38673 0.43372,0.82912 0.8968,0.90439 1.97347,0.21259 4.07861,0.07 6.15438,0.0587 0.005,0.74186 0.0274,1.66091 0.0326,2.40879 -1.81777,0.0397 -3.63798,0.10715 -5.45162,-0.025 -1.66854,-0.39015 -2.79006,-1.87797 -3.50244,-3.34326 -3.9439,-7.82197 -7.6423,-15.76385 -11.60424,-23.5766 -0.44192,-0.74994 -0.77087,-1.68339 -1.6253,-2.05763 -3.25747,-1.59056 -6.15468,-3.85262 -8.57813,-6.53862 -3.8372,-4.39277 -5.10939,-10.46058 -4.76437,-16.15148 0.2406,-1.15651 0.82235,-2.33882 2.02787,-2.79668 z"
           style="fill:#f28fad;fill-rule:nonzero;stroke:none;stroke-width:0.2648"
           id="path2253" />
      </g>
    </g>
  </g>
</svg>
